<?xml version="1.0" encoding="UTF-8"?><svg xmlns="http://www.w3.org/2000/svg" xmlns:xlink="http://www.w3.org/1999/xlink" fill-opacity="1" color-rendering="auto" color-interpolation="auto" text-rendering="auto" stroke="black" stroke-linecap="square" width="419" stroke-miterlimit="10" shape-rendering="auto" stroke-opacity="1" fill="black" stroke-dasharray="none" font-weight="normal" stroke-width="1" height="189" font-family="'Dialog'" font-style="normal" stroke-linejoin="miter" font-size="12px" stroke-dashoffset="0" image-rendering="auto">
  <!--Generated by ySVG 2.5-->
  <defs id="genericDefs"/>
  <g>
    <defs id="defs1">
      <clipPath clipPathUnits="userSpaceOnUse" id="clipPath1">
        <path d="M0 0 L419 0 L419 189 L0 189 L0 0 Z"/>
      </clipPath>
      <clipPath clipPathUnits="userSpaceOnUse" id="clipPath2">
        <path d="M548 24 L967 24 L967 213 L548 213 L548 24 Z"/>
      </clipPath>
    </defs>
    <g fill="white" text-rendering="geometricPrecision" shape-rendering="geometricPrecision" transform="matrix(1,0,0,1,-548,-24)" stroke="white">
      <circle r="15" clip-path="url(#clipPath2)" cx="643.875" cy="85.3755" stroke="none"/>
    </g>
    <g text-rendering="geometricPrecision" stroke-miterlimit="1.45" shape-rendering="geometricPrecision" transform="matrix(1,0,0,1,-548,-24)" stroke-linecap="butt">
      <circle fill="none" r="15" clip-path="url(#clipPath2)" cx="643.875" cy="85.3755"/>
    </g>
    <g fill="white" text-rendering="geometricPrecision" shape-rendering="geometricPrecision" transform="matrix(1,0,0,1,-548,-24)" stroke="white">
      <circle r="15" clip-path="url(#clipPath2)" cx="643.875" cy="126.6008" stroke="none"/>
    </g>
    <g text-rendering="geometricPrecision" stroke-miterlimit="1.45" shape-rendering="geometricPrecision" transform="matrix(1,0,0,1,-548,-24)" stroke-linecap="butt">
      <circle fill="none" r="15" clip-path="url(#clipPath2)" cx="643.875" cy="126.6008"/>
    </g>
    <g fill="white" text-rendering="geometricPrecision" shape-rendering="geometricPrecision" transform="matrix(1,0,0,1,-548,-24)" stroke="white">
      <circle r="15" clip-path="url(#clipPath2)" cx="643.875" cy="167.8261" stroke="none"/>
    </g>
    <g text-rendering="geometricPrecision" stroke-miterlimit="1.45" shape-rendering="geometricPrecision" transform="matrix(1,0,0,1,-548,-24)" stroke-linecap="butt">
      <circle fill="none" r="15" clip-path="url(#clipPath2)" cx="643.875" cy="167.8261"/>
    </g>
    <g fill="white" text-rendering="geometricPrecision" shape-rendering="geometricPrecision" transform="matrix(1,0,0,1,-548,-24)" stroke="white">
      <circle r="15" clip-path="url(#clipPath2)" cx="748.75" cy="152.5651" stroke="none"/>
    </g>
    <g text-rendering="geometricPrecision" stroke-miterlimit="1.45" shape-rendering="geometricPrecision" transform="matrix(1,0,0,1,-548,-24)" stroke-linecap="butt">
      <circle fill="none" r="15" clip-path="url(#clipPath2)" cx="748.75" cy="152.5651"/>
    </g>
    <g fill="white" text-rendering="geometricPrecision" shape-rendering="geometricPrecision" transform="matrix(1,0,0,1,-548,-24)" stroke="white">
      <circle r="15" clip-path="url(#clipPath2)" cx="748.75" cy="106" stroke="none"/>
    </g>
    <g text-rendering="geometricPrecision" stroke-miterlimit="1.45" shape-rendering="geometricPrecision" transform="matrix(1,0,0,1,-548,-24)" stroke-linecap="butt">
      <circle fill="none" r="15" clip-path="url(#clipPath2)" cx="748.75" cy="106"/>
    </g>
    <g fill="white" text-rendering="geometricPrecision" shape-rendering="geometricPrecision" transform="matrix(1,0,0,1,-548,-24)" stroke="white">
      <circle r="15" clip-path="url(#clipPath2)" cx="846.625" cy="126.6008" stroke="none"/>
    </g>
    <g text-rendering="geometricPrecision" stroke-miterlimit="1.45" shape-rendering="geometricPrecision" transform="matrix(1,0,0,1,-548,-24)" stroke-linecap="butt">
      <circle fill="none" r="15" clip-path="url(#clipPath2)" cx="846.625" cy="126.6008"/>
      <rect x="621.1881" y="59.1764" clip-path="url(#clipPath2)" fill="none" width="45.3737" height="138.5386" stroke="red"/>
      <text x="609.7031" xml:space="preserve" y="52.178" clip-path="url(#clipPath2)" font-family="sans-serif" stroke="none">Input Layer</text>
      <rect x="726.0631" y="59.1764" clip-path="url(#clipPath2)" fill="none" width="45.3737" height="138.5386" stroke="rgb(255,153,0)"/>
      <text x="708.8242" xml:space="preserve" y="52.178" clip-path="url(#clipPath2)" font-family="sans-serif" stroke="none">Hidden Layer</text>
      <rect x="823.9381" y="59.1764" clip-path="url(#clipPath2)" fill="none" width="45.3737" height="138.5386" stroke="lime"/>
      <text x="807.1475" xml:space="preserve" y="52.178" clip-path="url(#clipPath2)" font-family="sans-serif" stroke="none">Output Layer</text>
      <path fill="none" d="M658.7187 165.6661 L725.9897 155.8771" clip-path="url(#clipPath2)"/>
      <path d="M733.9063 154.7251 L721.3114 151.5052 L725.0001 156.0211 L722.7513 161.401 Z" clip-path="url(#clipPath2)" stroke="none"/>
      <path fill="none" d="M658.4354 130.2056 L726.424 147.0378" clip-path="url(#clipPath2)"/>
      <path d="M734.1896 148.9603 L723.7429 141.2231 L725.4533 146.7975 L721.3397 150.93 Z" clip-path="url(#clipPath2)" stroke="none"/>
      <path fill="none" d="M656.5052 93.4672 L729.3836 140.1578" clip-path="url(#clipPath2)"/>
      <path d="M736.1198 144.4734 L728.7128 133.7899 L728.5416 139.6183 L723.3183 142.2101 Z" clip-path="url(#clipPath2)" stroke="none"/>
      <path fill="none" d="M656.7968 160.2085 L728.9366 117.6804" clip-path="url(#clipPath2)"/>
      <path d="M735.8282 113.6177 L722.9517 115.4045 L728.0752 118.1882 L728.0301 124.019 Z" clip-path="url(#clipPath2)" stroke="none"/>
      <path fill="none" d="M658.5938 123.7096 L726.1813 110.4332" clip-path="url(#clipPath2)"/>
      <path d="M734.0312 108.8912 L721.2925 106.298 L725.2 110.626 L723.22 116.1105 Z" clip-path="url(#clipPath2)" stroke="none"/>
      <path fill="none" d="M658.5931 88.2699 L726.1823 101.5619" clip-path="url(#clipPath2)"/>
      <path d="M734.0319 103.1056 L723.2222 95.884 L725.201 101.3689 L721.2927 105.6961 Z" clip-path="url(#clipPath2)" stroke="none"/>
      <path fill="none" d="M763.2485 148.7189 L824.3939 132.4983" clip-path="url(#clipPath2)"/>
      <path d="M832.1265 130.447 L819.2456 128.6911 L823.4274 132.7547 L821.8097 138.3568 Z" clip-path="url(#clipPath2)" stroke="none"/>
      <path fill="none" d="M763.4284 109.0895 L824.1182 121.8635" clip-path="url(#clipPath2)"/>
      <path d="M831.9467 123.5113 L821.2338 116.1469 L823.1396 121.6576 L819.1741 125.9325 Z" clip-path="url(#clipPath2)" stroke="none"/>
      <path fill="none" d="M593.1225 85.3755 L620.875 85.3755" clip-path="url(#clipPath2)"/>
      <path d="M628.875 85.3755 L616.875 80.3755 L619.875 85.3755 L616.875 90.3755 Z" clip-path="url(#clipPath2)" stroke="none"/>
      <text x="605.3569" xml:space="preserve" y="77.7132" clip-path="url(#clipPath2)" font-family="sans-serif" stroke="none">A</text>
      <path fill="none" d="M593.1225 126.6008 L620.875 126.6008" clip-path="url(#clipPath2)"/>
      <path d="M628.875 126.6008 L616.875 121.6008 L619.875 126.6008 L616.875 131.6008 Z" clip-path="url(#clipPath2)" stroke="none"/>
      <text x="604.1153" xml:space="preserve" y="118.3236" clip-path="url(#clipPath2)" font-family="sans-serif" stroke="none">B</text>
      <path fill="none" d="M593.1225 167.8261 L620.875 167.8261" clip-path="url(#clipPath2)"/>
      <path d="M628.875 167.8261 L616.875 162.8261 L619.875 167.8261 L616.875 172.8261 Z" clip-path="url(#clipPath2)" stroke="none"/>
      <text x="603.4271" xml:space="preserve" y="159.5489" clip-path="url(#clipPath2)" font-family="sans-serif" stroke="none">C</text>
      <path fill="none" d="M861.625 126.6008 L884.9557 126.6008" clip-path="url(#clipPath2)"/>
      <path d="M892.9557 126.6008 L880.9557 121.6008 L883.9557 126.6008 L880.9557 131.6008 Z" clip-path="url(#clipPath2)" stroke="none"/>
      <text x="868.9805" xml:space="preserve" y="116.7862" clip-path="url(#clipPath2)" font-family="sans-serif" stroke="none">D</text>
    </g>
  </g>
</svg>
