<?xml version="1.0" encoding="utf-8" standalone="no"?>
<!DOCTYPE svg PUBLIC "-//W3C//DTD SVG 1.1//EN"
  "http://www.w3.org/Graphics/SVG/1.1/DTD/svg11.dtd">
<svg height="720pt" version="1.1" viewBox="0 0 1440 720" width="1440pt" xmlns="http://www.w3.org/2000/svg" xmlns:xlink="http://www.w3.org/1999/xlink">
 <metadata>
  <rdf:RDF xmlns:cc="http://creativecommons.org/ns#" xmlns:dc="http://purl.org/dc/elements/1.1/" xmlns:rdf="http://www.w3.org/1999/02/22-rdf-syntax-ns#">
   <cc:Work>
    <dc:type rdf:resource="http://purl.org/dc/dcmitype/StillImage"/>
    <dc:date>2022-01-03T19:24:03.074163</dc:date>
    <dc:format>image/svg+xml</dc:format>
    <dc:creator>
     <cc:Agent>
      <dc:title>Matplotlib v3.4.3, https://matplotlib.org/</dc:title>
     </cc:Agent>
    </dc:creator>
   </cc:Work>
  </rdf:RDF>
 </metadata>
 <defs>
  <style type="text/css">*{stroke-linecap:butt;stroke-linejoin:round;}</style>
 </defs>
 <g id="figure_1">
  <g id="patch_1">
   <path d="M 0 720 
L 1440 720 
L 1440 0 
L 0 0 
z
" style="fill:#ffffff;"/>
  </g>
  <g id="axes_1">
   <g id="patch_2">
    <path d="M 180 630 
L 1296 630 
L 1296 86.4 
L 180 86.4 
z
" style="fill:#eaeaf2;"/>
   </g>
   <g id="matplotlib.axis_1">
    <g id="xtick_1">
     <g id="line2d_1">
      <path clip-path="url(#p2ce3f942b1)" d="M 230.727273 630 
L 230.727273 86.4 
" style="fill:none;stroke:#ffffff;stroke-linecap:round;stroke-width:0.8;"/>
     </g>
     <g id="text_1">
      <!-- 0 -->
      <g style="fill:#262626;" transform="translate(227.946804 644.157812)scale(0.1 -0.1)">
       <defs>
        <path d="M 266 2259 
Q 266 3072 433 3567 
Q 600 4063 929 4331 
Q 1259 4600 1759 4600 
Q 2128 4600 2406 4451 
Q 2684 4303 2865 4023 
Q 3047 3744 3150 3342 
Q 3253 2941 3253 2259 
Q 3253 1453 3087 958 
Q 2922 463 2592 192 
Q 2263 -78 1759 -78 
Q 1097 -78 719 397 
Q 266 969 266 2259 
z
M 844 2259 
Q 844 1131 1108 757 
Q 1372 384 1759 384 
Q 2147 384 2411 759 
Q 2675 1134 2675 2259 
Q 2675 3391 2411 3762 
Q 2147 4134 1753 4134 
Q 1366 4134 1134 3806 
Q 844 3388 844 2259 
z
" id="ArialMT-30" transform="scale(0.015625)"/>
       </defs>
       <use xlink:href="#ArialMT-30"/>
      </g>
     </g>
    </g>
    <g id="xtick_2">
     <g id="line2d_2">
      <path clip-path="url(#p2ce3f942b1)" d="M 433.839476 630 
L 433.839476 86.4 
" style="fill:none;stroke:#ffffff;stroke-linecap:round;stroke-width:0.8;"/>
     </g>
     <g id="text_2">
      <!-- 200 -->
      <g style="fill:#262626;" transform="translate(425.49807 644.157812)scale(0.1 -0.1)">
       <defs>
        <path d="M 3222 541 
L 3222 0 
L 194 0 
Q 188 203 259 391 
Q 375 700 629 1000 
Q 884 1300 1366 1694 
Q 2113 2306 2375 2664 
Q 2638 3022 2638 3341 
Q 2638 3675 2398 3904 
Q 2159 4134 1775 4134 
Q 1369 4134 1125 3890 
Q 881 3647 878 3216 
L 300 3275 
Q 359 3922 746 4261 
Q 1134 4600 1788 4600 
Q 2447 4600 2831 4234 
Q 3216 3869 3216 3328 
Q 3216 3053 3103 2787 
Q 2991 2522 2730 2228 
Q 2469 1934 1863 1422 
Q 1356 997 1212 845 
Q 1069 694 975 541 
L 3222 541 
z
" id="ArialMT-32" transform="scale(0.015625)"/>
       </defs>
       <use xlink:href="#ArialMT-32"/>
       <use x="55.615234" xlink:href="#ArialMT-30"/>
       <use x="111.230469" xlink:href="#ArialMT-30"/>
      </g>
     </g>
    </g>
    <g id="xtick_3">
     <g id="line2d_3">
      <path clip-path="url(#p2ce3f942b1)" d="M 636.951679 630 
L 636.951679 86.4 
" style="fill:none;stroke:#ffffff;stroke-linecap:round;stroke-width:0.8;"/>
     </g>
     <g id="text_3">
      <!-- 400 -->
      <g style="fill:#262626;" transform="translate(628.610273 644.157812)scale(0.1 -0.1)">
       <defs>
        <path d="M 2069 0 
L 2069 1097 
L 81 1097 
L 81 1613 
L 2172 4581 
L 2631 4581 
L 2631 1613 
L 3250 1613 
L 3250 1097 
L 2631 1097 
L 2631 0 
L 2069 0 
z
M 2069 1613 
L 2069 3678 
L 634 1613 
L 2069 1613 
z
" id="ArialMT-34" transform="scale(0.015625)"/>
       </defs>
       <use xlink:href="#ArialMT-34"/>
       <use x="55.615234" xlink:href="#ArialMT-30"/>
       <use x="111.230469" xlink:href="#ArialMT-30"/>
      </g>
     </g>
    </g>
    <g id="xtick_4">
     <g id="line2d_4">
      <path clip-path="url(#p2ce3f942b1)" d="M 840.063882 630 
L 840.063882 86.4 
" style="fill:none;stroke:#ffffff;stroke-linecap:round;stroke-width:0.8;"/>
     </g>
     <g id="text_4">
      <!-- 600 -->
      <g style="fill:#262626;" transform="translate(831.722476 644.157812)scale(0.1 -0.1)">
       <defs>
        <path d="M 3184 3459 
L 2625 3416 
Q 2550 3747 2413 3897 
Q 2184 4138 1850 4138 
Q 1581 4138 1378 3988 
Q 1113 3794 959 3422 
Q 806 3050 800 2363 
Q 1003 2672 1297 2822 
Q 1591 2972 1913 2972 
Q 2475 2972 2870 2558 
Q 3266 2144 3266 1488 
Q 3266 1056 3080 686 
Q 2894 316 2569 119 
Q 2244 -78 1831 -78 
Q 1128 -78 684 439 
Q 241 956 241 2144 
Q 241 3472 731 4075 
Q 1159 4600 1884 4600 
Q 2425 4600 2770 4297 
Q 3116 3994 3184 3459 
z
M 888 1484 
Q 888 1194 1011 928 
Q 1134 663 1356 523 
Q 1578 384 1822 384 
Q 2178 384 2434 671 
Q 2691 959 2691 1453 
Q 2691 1928 2437 2201 
Q 2184 2475 1800 2475 
Q 1419 2475 1153 2201 
Q 888 1928 888 1484 
z
" id="ArialMT-36" transform="scale(0.015625)"/>
       </defs>
       <use xlink:href="#ArialMT-36"/>
       <use x="55.615234" xlink:href="#ArialMT-30"/>
       <use x="111.230469" xlink:href="#ArialMT-30"/>
      </g>
     </g>
    </g>
    <g id="xtick_5">
     <g id="line2d_5">
      <path clip-path="url(#p2ce3f942b1)" d="M 1043.176085 630 
L 1043.176085 86.4 
" style="fill:none;stroke:#ffffff;stroke-linecap:round;stroke-width:0.8;"/>
     </g>
     <g id="text_5">
      <!-- 800 -->
      <g style="fill:#262626;" transform="translate(1034.834679 644.157812)scale(0.1 -0.1)">
       <defs>
        <path d="M 1131 2484 
Q 781 2613 612 2850 
Q 444 3088 444 3419 
Q 444 3919 803 4259 
Q 1163 4600 1759 4600 
Q 2359 4600 2725 4251 
Q 3091 3903 3091 3403 
Q 3091 3084 2923 2848 
Q 2756 2613 2416 2484 
Q 2838 2347 3058 2040 
Q 3278 1734 3278 1309 
Q 3278 722 2862 322 
Q 2447 -78 1769 -78 
Q 1091 -78 675 323 
Q 259 725 259 1325 
Q 259 1772 486 2073 
Q 713 2375 1131 2484 
z
M 1019 3438 
Q 1019 3113 1228 2906 
Q 1438 2700 1772 2700 
Q 2097 2700 2305 2904 
Q 2513 3109 2513 3406 
Q 2513 3716 2298 3927 
Q 2084 4138 1766 4138 
Q 1444 4138 1231 3931 
Q 1019 3725 1019 3438 
z
M 838 1322 
Q 838 1081 952 856 
Q 1066 631 1291 507 
Q 1516 384 1775 384 
Q 2178 384 2440 643 
Q 2703 903 2703 1303 
Q 2703 1709 2433 1975 
Q 2163 2241 1756 2241 
Q 1359 2241 1098 1978 
Q 838 1716 838 1322 
z
" id="ArialMT-38" transform="scale(0.015625)"/>
       </defs>
       <use xlink:href="#ArialMT-38"/>
       <use x="55.615234" xlink:href="#ArialMT-30"/>
       <use x="111.230469" xlink:href="#ArialMT-30"/>
      </g>
     </g>
    </g>
    <g id="xtick_6">
     <g id="line2d_6">
      <path clip-path="url(#p2ce3f942b1)" d="M 1246.288288 630 
L 1246.288288 86.4 
" style="fill:none;stroke:#ffffff;stroke-linecap:round;stroke-width:0.8;"/>
     </g>
     <g id="text_6">
      <!-- 1000 -->
      <g style="fill:#262626;" transform="translate(1235.166413 644.157812)scale(0.1 -0.1)">
       <defs>
        <path d="M 2384 0 
L 1822 0 
L 1822 3584 
Q 1619 3391 1289 3197 
Q 959 3003 697 2906 
L 697 3450 
Q 1169 3672 1522 3987 
Q 1875 4303 2022 4600 
L 2384 4600 
L 2384 0 
z
" id="ArialMT-31" transform="scale(0.015625)"/>
       </defs>
       <use xlink:href="#ArialMT-31"/>
       <use x="55.615234" xlink:href="#ArialMT-30"/>
       <use x="111.230469" xlink:href="#ArialMT-30"/>
       <use x="166.845703" xlink:href="#ArialMT-30"/>
      </g>
     </g>
    </g>
    <g id="text_7">
     <!-- Number of iterations -->
     <g style="fill:#262626;" transform="translate(656.970469 663.029375)scale(0.18 -0.18)">
      <defs>
       <path d="M 488 0 
L 488 4581 
L 1109 4581 
L 3516 984 
L 3516 4581 
L 4097 4581 
L 4097 0 
L 3475 0 
L 1069 3600 
L 1069 0 
L 488 0 
z
" id="ArialMT-4e" transform="scale(0.015625)"/>
       <path d="M 2597 0 
L 2597 488 
Q 2209 -75 1544 -75 
Q 1250 -75 995 37 
Q 741 150 617 320 
Q 494 491 444 738 
Q 409 903 409 1263 
L 409 3319 
L 972 3319 
L 972 1478 
Q 972 1038 1006 884 
Q 1059 663 1231 536 
Q 1403 409 1656 409 
Q 1909 409 2131 539 
Q 2353 669 2445 892 
Q 2538 1116 2538 1541 
L 2538 3319 
L 3100 3319 
L 3100 0 
L 2597 0 
z
" id="ArialMT-75" transform="scale(0.015625)"/>
       <path d="M 422 0 
L 422 3319 
L 925 3319 
L 925 2853 
Q 1081 3097 1340 3245 
Q 1600 3394 1931 3394 
Q 2300 3394 2536 3241 
Q 2772 3088 2869 2813 
Q 3263 3394 3894 3394 
Q 4388 3394 4653 3120 
Q 4919 2847 4919 2278 
L 4919 0 
L 4359 0 
L 4359 2091 
Q 4359 2428 4304 2576 
Q 4250 2725 4106 2815 
Q 3963 2906 3769 2906 
Q 3419 2906 3187 2673 
Q 2956 2441 2956 1928 
L 2956 0 
L 2394 0 
L 2394 2156 
Q 2394 2531 2256 2718 
Q 2119 2906 1806 2906 
Q 1569 2906 1367 2781 
Q 1166 2656 1075 2415 
Q 984 2175 984 1722 
L 984 0 
L 422 0 
z
" id="ArialMT-6d" transform="scale(0.015625)"/>
       <path d="M 941 0 
L 419 0 
L 419 4581 
L 981 4581 
L 981 2947 
Q 1338 3394 1891 3394 
Q 2197 3394 2470 3270 
Q 2744 3147 2920 2923 
Q 3097 2700 3197 2384 
Q 3297 2069 3297 1709 
Q 3297 856 2875 390 
Q 2453 -75 1863 -75 
Q 1275 -75 941 416 
L 941 0 
z
M 934 1684 
Q 934 1088 1097 822 
Q 1363 388 1816 388 
Q 2184 388 2453 708 
Q 2722 1028 2722 1663 
Q 2722 2313 2464 2622 
Q 2206 2931 1841 2931 
Q 1472 2931 1203 2611 
Q 934 2291 934 1684 
z
" id="ArialMT-62" transform="scale(0.015625)"/>
       <path d="M 2694 1069 
L 3275 997 
Q 3138 488 2766 206 
Q 2394 -75 1816 -75 
Q 1088 -75 661 373 
Q 234 822 234 1631 
Q 234 2469 665 2931 
Q 1097 3394 1784 3394 
Q 2450 3394 2872 2941 
Q 3294 2488 3294 1666 
Q 3294 1616 3291 1516 
L 816 1516 
Q 847 969 1125 678 
Q 1403 388 1819 388 
Q 2128 388 2347 550 
Q 2566 713 2694 1069 
z
M 847 1978 
L 2700 1978 
Q 2663 2397 2488 2606 
Q 2219 2931 1791 2931 
Q 1403 2931 1139 2672 
Q 875 2413 847 1978 
z
" id="ArialMT-65" transform="scale(0.015625)"/>
       <path d="M 416 0 
L 416 3319 
L 922 3319 
L 922 2816 
Q 1116 3169 1280 3281 
Q 1444 3394 1641 3394 
Q 1925 3394 2219 3213 
L 2025 2691 
Q 1819 2813 1613 2813 
Q 1428 2813 1281 2702 
Q 1134 2591 1072 2394 
Q 978 2094 978 1738 
L 978 0 
L 416 0 
z
" id="ArialMT-72" transform="scale(0.015625)"/>
       <path id="ArialMT-20" transform="scale(0.015625)"/>
       <path d="M 213 1659 
Q 213 2581 725 3025 
Q 1153 3394 1769 3394 
Q 2453 3394 2887 2945 
Q 3322 2497 3322 1706 
Q 3322 1066 3130 698 
Q 2938 331 2570 128 
Q 2203 -75 1769 -75 
Q 1072 -75 642 372 
Q 213 819 213 1659 
z
M 791 1659 
Q 791 1022 1069 705 
Q 1347 388 1769 388 
Q 2188 388 2466 706 
Q 2744 1025 2744 1678 
Q 2744 2294 2464 2611 
Q 2184 2928 1769 2928 
Q 1347 2928 1069 2612 
Q 791 2297 791 1659 
z
" id="ArialMT-6f" transform="scale(0.015625)"/>
       <path d="M 556 0 
L 556 2881 
L 59 2881 
L 59 3319 
L 556 3319 
L 556 3672 
Q 556 4006 616 4169 
Q 697 4388 901 4523 
Q 1106 4659 1475 4659 
Q 1713 4659 2000 4603 
L 1916 4113 
Q 1741 4144 1584 4144 
Q 1328 4144 1222 4034 
Q 1116 3925 1116 3625 
L 1116 3319 
L 1763 3319 
L 1763 2881 
L 1116 2881 
L 1116 0 
L 556 0 
z
" id="ArialMT-66" transform="scale(0.015625)"/>
       <path d="M 425 3934 
L 425 4581 
L 988 4581 
L 988 3934 
L 425 3934 
z
M 425 0 
L 425 3319 
L 988 3319 
L 988 0 
L 425 0 
z
" id="ArialMT-69" transform="scale(0.015625)"/>
       <path d="M 1650 503 
L 1731 6 
Q 1494 -44 1306 -44 
Q 1000 -44 831 53 
Q 663 150 594 308 
Q 525 466 525 972 
L 525 2881 
L 113 2881 
L 113 3319 
L 525 3319 
L 525 4141 
L 1084 4478 
L 1084 3319 
L 1650 3319 
L 1650 2881 
L 1084 2881 
L 1084 941 
Q 1084 700 1114 631 
Q 1144 563 1211 522 
Q 1278 481 1403 481 
Q 1497 481 1650 503 
z
" id="ArialMT-74" transform="scale(0.015625)"/>
       <path d="M 2588 409 
Q 2275 144 1986 34 
Q 1697 -75 1366 -75 
Q 819 -75 525 192 
Q 231 459 231 875 
Q 231 1119 342 1320 
Q 453 1522 633 1644 
Q 813 1766 1038 1828 
Q 1203 1872 1538 1913 
Q 2219 1994 2541 2106 
Q 2544 2222 2544 2253 
Q 2544 2597 2384 2738 
Q 2169 2928 1744 2928 
Q 1347 2928 1158 2789 
Q 969 2650 878 2297 
L 328 2372 
Q 403 2725 575 2942 
Q 747 3159 1072 3276 
Q 1397 3394 1825 3394 
Q 2250 3394 2515 3294 
Q 2781 3194 2906 3042 
Q 3031 2891 3081 2659 
Q 3109 2516 3109 2141 
L 3109 1391 
Q 3109 606 3145 398 
Q 3181 191 3288 0 
L 2700 0 
Q 2613 175 2588 409 
z
M 2541 1666 
Q 2234 1541 1622 1453 
Q 1275 1403 1131 1340 
Q 988 1278 909 1158 
Q 831 1038 831 891 
Q 831 666 1001 516 
Q 1172 366 1500 366 
Q 1825 366 2078 508 
Q 2331 650 2450 897 
Q 2541 1088 2541 1459 
L 2541 1666 
z
" id="ArialMT-61" transform="scale(0.015625)"/>
       <path d="M 422 0 
L 422 3319 
L 928 3319 
L 928 2847 
Q 1294 3394 1984 3394 
Q 2284 3394 2536 3286 
Q 2788 3178 2913 3003 
Q 3038 2828 3088 2588 
Q 3119 2431 3119 2041 
L 3119 0 
L 2556 0 
L 2556 2019 
Q 2556 2363 2490 2533 
Q 2425 2703 2258 2804 
Q 2091 2906 1866 2906 
Q 1506 2906 1245 2678 
Q 984 2450 984 1813 
L 984 0 
L 422 0 
z
" id="ArialMT-6e" transform="scale(0.015625)"/>
       <path d="M 197 991 
L 753 1078 
Q 800 744 1014 566 
Q 1228 388 1613 388 
Q 2000 388 2187 545 
Q 2375 703 2375 916 
Q 2375 1106 2209 1216 
Q 2094 1291 1634 1406 
Q 1016 1563 777 1677 
Q 538 1791 414 1992 
Q 291 2194 291 2438 
Q 291 2659 392 2848 
Q 494 3038 669 3163 
Q 800 3259 1026 3326 
Q 1253 3394 1513 3394 
Q 1903 3394 2198 3281 
Q 2494 3169 2634 2976 
Q 2775 2784 2828 2463 
L 2278 2388 
Q 2241 2644 2061 2787 
Q 1881 2931 1553 2931 
Q 1166 2931 1000 2803 
Q 834 2675 834 2503 
Q 834 2394 903 2306 
Q 972 2216 1119 2156 
Q 1203 2125 1616 2013 
Q 2213 1853 2448 1751 
Q 2684 1650 2818 1456 
Q 2953 1263 2953 975 
Q 2953 694 2789 445 
Q 2625 197 2315 61 
Q 2006 -75 1616 -75 
Q 969 -75 630 194 
Q 291 463 197 991 
z
" id="ArialMT-73" transform="scale(0.015625)"/>
      </defs>
      <use xlink:href="#ArialMT-4e"/>
      <use x="72.216797" xlink:href="#ArialMT-75"/>
      <use x="127.832031" xlink:href="#ArialMT-6d"/>
      <use x="211.132812" xlink:href="#ArialMT-62"/>
      <use x="266.748047" xlink:href="#ArialMT-65"/>
      <use x="322.363281" xlink:href="#ArialMT-72"/>
      <use x="355.664062" xlink:href="#ArialMT-20"/>
      <use x="383.447266" xlink:href="#ArialMT-6f"/>
      <use x="439.0625" xlink:href="#ArialMT-66"/>
      <use x="466.845703" xlink:href="#ArialMT-20"/>
      <use x="494.628906" xlink:href="#ArialMT-69"/>
      <use x="516.845703" xlink:href="#ArialMT-74"/>
      <use x="544.628906" xlink:href="#ArialMT-65"/>
      <use x="600.244141" xlink:href="#ArialMT-72"/>
      <use x="633.544922" xlink:href="#ArialMT-61"/>
      <use x="689.160156" xlink:href="#ArialMT-74"/>
      <use x="716.943359" xlink:href="#ArialMT-69"/>
      <use x="739.160156" xlink:href="#ArialMT-6f"/>
      <use x="794.775391" xlink:href="#ArialMT-6e"/>
      <use x="850.390625" xlink:href="#ArialMT-73"/>
     </g>
    </g>
   </g>
   <g id="matplotlib.axis_2">
    <g id="ytick_1">
     <g id="line2d_7">
      <path clip-path="url(#p2ce3f942b1)" d="M 180 620.533992 
L 1296 620.533992 
" style="fill:none;stroke:#ffffff;stroke-linecap:round;stroke-width:0.8;"/>
     </g>
     <g id="text_8">
      <!-- 0.1 -->
      <g style="fill:#262626;" transform="translate(159.1 624.112898)scale(0.1 -0.1)">
       <defs>
        <path d="M 581 0 
L 581 641 
L 1222 641 
L 1222 0 
L 581 0 
z
" id="ArialMT-2e" transform="scale(0.015625)"/>
       </defs>
       <use xlink:href="#ArialMT-30"/>
       <use x="55.615234" xlink:href="#ArialMT-2e"/>
       <use x="83.398438" xlink:href="#ArialMT-31"/>
      </g>
     </g>
    </g>
    <g id="ytick_2">
     <g id="line2d_8">
      <path clip-path="url(#p2ce3f942b1)" d="M 180 537.385441 
L 1296 537.385441 
" style="fill:none;stroke:#ffffff;stroke-linecap:round;stroke-width:0.8;"/>
     </g>
     <g id="text_9">
      <!-- 0.2 -->
      <g style="fill:#262626;" transform="translate(159.1 540.964347)scale(0.1 -0.1)">
       <use xlink:href="#ArialMT-30"/>
       <use x="55.615234" xlink:href="#ArialMT-2e"/>
       <use x="83.398438" xlink:href="#ArialMT-32"/>
      </g>
     </g>
    </g>
    <g id="ytick_3">
     <g id="line2d_9">
      <path clip-path="url(#p2ce3f942b1)" d="M 180 454.236891 
L 1296 454.236891 
" style="fill:none;stroke:#ffffff;stroke-linecap:round;stroke-width:0.8;"/>
     </g>
     <g id="text_10">
      <!-- 0.3 -->
      <g style="fill:#262626;" transform="translate(159.1 457.815797)scale(0.1 -0.1)">
       <defs>
        <path d="M 269 1209 
L 831 1284 
Q 928 806 1161 595 
Q 1394 384 1728 384 
Q 2125 384 2398 659 
Q 2672 934 2672 1341 
Q 2672 1728 2419 1979 
Q 2166 2231 1775 2231 
Q 1616 2231 1378 2169 
L 1441 2663 
Q 1497 2656 1531 2656 
Q 1891 2656 2178 2843 
Q 2466 3031 2466 3422 
Q 2466 3731 2256 3934 
Q 2047 4138 1716 4138 
Q 1388 4138 1169 3931 
Q 950 3725 888 3313 
L 325 3413 
Q 428 3978 793 4289 
Q 1159 4600 1703 4600 
Q 2078 4600 2393 4439 
Q 2709 4278 2876 4000 
Q 3044 3722 3044 3409 
Q 3044 3113 2884 2869 
Q 2725 2625 2413 2481 
Q 2819 2388 3044 2092 
Q 3269 1797 3269 1353 
Q 3269 753 2831 336 
Q 2394 -81 1725 -81 
Q 1122 -81 723 278 
Q 325 638 269 1209 
z
" id="ArialMT-33" transform="scale(0.015625)"/>
       </defs>
       <use xlink:href="#ArialMT-30"/>
       <use x="55.615234" xlink:href="#ArialMT-2e"/>
       <use x="83.398438" xlink:href="#ArialMT-33"/>
      </g>
     </g>
    </g>
    <g id="ytick_4">
     <g id="line2d_10">
      <path clip-path="url(#p2ce3f942b1)" d="M 180 371.08834 
L 1296 371.08834 
" style="fill:none;stroke:#ffffff;stroke-linecap:round;stroke-width:0.8;"/>
     </g>
     <g id="text_11">
      <!-- 0.4 -->
      <g style="fill:#262626;" transform="translate(159.1 374.667246)scale(0.1 -0.1)">
       <use xlink:href="#ArialMT-30"/>
       <use x="55.615234" xlink:href="#ArialMT-2e"/>
       <use x="83.398438" xlink:href="#ArialMT-34"/>
      </g>
     </g>
    </g>
    <g id="ytick_5">
     <g id="line2d_11">
      <path clip-path="url(#p2ce3f942b1)" d="M 180 287.939789 
L 1296 287.939789 
" style="fill:none;stroke:#ffffff;stroke-linecap:round;stroke-width:0.8;"/>
     </g>
     <g id="text_12">
      <!-- 0.5 -->
      <g style="fill:#262626;" transform="translate(159.1 291.518696)scale(0.1 -0.1)">
       <defs>
        <path d="M 266 1200 
L 856 1250 
Q 922 819 1161 601 
Q 1400 384 1738 384 
Q 2144 384 2425 690 
Q 2706 997 2706 1503 
Q 2706 1984 2436 2262 
Q 2166 2541 1728 2541 
Q 1456 2541 1237 2417 
Q 1019 2294 894 2097 
L 366 2166 
L 809 4519 
L 3088 4519 
L 3088 3981 
L 1259 3981 
L 1013 2750 
Q 1425 3038 1878 3038 
Q 2478 3038 2890 2622 
Q 3303 2206 3303 1553 
Q 3303 931 2941 478 
Q 2500 -78 1738 -78 
Q 1113 -78 717 272 
Q 322 622 266 1200 
z
" id="ArialMT-35" transform="scale(0.015625)"/>
       </defs>
       <use xlink:href="#ArialMT-30"/>
       <use x="55.615234" xlink:href="#ArialMT-2e"/>
       <use x="83.398438" xlink:href="#ArialMT-35"/>
      </g>
     </g>
    </g>
    <g id="ytick_6">
     <g id="line2d_12">
      <path clip-path="url(#p2ce3f942b1)" d="M 180 204.791239 
L 1296 204.791239 
" style="fill:none;stroke:#ffffff;stroke-linecap:round;stroke-width:0.8;"/>
     </g>
     <g id="text_13">
      <!-- 0.6 -->
      <g style="fill:#262626;" transform="translate(159.1 208.370145)scale(0.1 -0.1)">
       <use xlink:href="#ArialMT-30"/>
       <use x="55.615234" xlink:href="#ArialMT-2e"/>
       <use x="83.398438" xlink:href="#ArialMT-36"/>
      </g>
     </g>
    </g>
    <g id="ytick_7">
     <g id="line2d_13">
      <path clip-path="url(#p2ce3f942b1)" d="M 180 121.642688 
L 1296 121.642688 
" style="fill:none;stroke:#ffffff;stroke-linecap:round;stroke-width:0.8;"/>
     </g>
     <g id="text_14">
      <!-- 0.7 -->
      <g style="fill:#262626;" transform="translate(159.1 125.221594)scale(0.1 -0.1)">
       <defs>
        <path d="M 303 3981 
L 303 4522 
L 3269 4522 
L 3269 4084 
Q 2831 3619 2401 2847 
Q 1972 2075 1738 1259 
Q 1569 684 1522 0 
L 944 0 
Q 953 541 1156 1306 
Q 1359 2072 1739 2783 
Q 2119 3494 2547 3981 
L 303 3981 
z
" id="ArialMT-37" transform="scale(0.015625)"/>
       </defs>
       <use xlink:href="#ArialMT-30"/>
       <use x="55.615234" xlink:href="#ArialMT-2e"/>
       <use x="83.398438" xlink:href="#ArialMT-37"/>
      </g>
     </g>
    </g>
    <g id="text_15">
     <!-- Loss -->
     <g style="fill:#262626;" transform="translate(151.5225 377.209687)rotate(-90)scale(0.18 -0.18)">
      <defs>
       <path d="M 469 0 
L 469 4581 
L 1075 4581 
L 1075 541 
L 3331 541 
L 3331 0 
L 469 0 
z
" id="ArialMT-4c" transform="scale(0.015625)"/>
      </defs>
      <use xlink:href="#ArialMT-4c"/>
      <use x="55.615234" xlink:href="#ArialMT-6f"/>
      <use x="111.230469" xlink:href="#ArialMT-73"/>
      <use x="161.230469" xlink:href="#ArialMT-73"/>
     </g>
    </g>
   </g>
   <g id="line2d_14">
    <path clip-path="url(#p2ce3f942b1)" d="M 230.727273 111.109091 
L 231.742834 125.963538 
L 232.758395 127.874345 
L 233.773956 125.820832 
L 234.789517 128.027293 
L 235.805078 125.661352 
L 236.820639 128.18164 
L 237.8362 125.483346 
L 238.851761 128.336451 
L 239.867322 125.284886 
L 240.882883 128.490632 
L 241.898444 126.151843 
L 242.914005 128.16507 
L 243.929566 125.985939 
L 244.945127 128.340308 
L 245.960688 125.799538 
L 246.976249 128.515839 
L 247.99181 125.590418 
L 249.007371 128.690348 
L 250.022932 126.533914 
L 251.038493 128.358838 
L 252.054054 126.283328 
L 253.069615 128.557034 
L 254.085176 126.083602 
L 255.100737 128.754945 
L 256.116298 126.134938 
L 257.131859 128.833055 
L 258.14742 126.394373 
L 259.162981 128.852766 
L 260.178542 126.14298 
L 261.194103 129.03958 
L 262.209664 127.09777 
L 263.225225 128.736488 
L 264.240786 126.754983 
L 265.256347 129.032105 
L 266.271908 126.458498 
L 267.287469 129.29006 
L 268.30303 127.945919 
L 269.318591 128.854667 
L 270.334152 127.166321 
L 271.349713 129.220095 
L 272.365274 126.733406 
L 273.380835 129.525444 
L 274.396396 128.328767 
L 275.411957 129.056608 
L 276.427518 127.48671 
L 277.443079 129.489281 
L 278.45864 127.069807 
L 279.474201 129.783022 
L 280.489762 128.841212 
L 281.505324 129.335852 
L 282.520885 127.732034 
L 283.536446 129.789963 
L 284.552007 127.667394 
L 285.567568 129.98268 
L 286.583129 128.419556 
L 287.59869 129.92953 
L 288.614251 127.619074 
L 289.629812 130.316046 
L 290.645373 129.890284 
L 291.660934 129.871215 
L 292.676495 128.149647 
L 293.692056 130.416954 
L 294.707617 129.371448 
L 295.723178 130.232213 
L 296.738739 128.11137 
L 297.7543 130.731952 
L 298.769861 130.334694 
L 299.785422 130.378676 
L 300.800983 128.440501 
L 301.816544 130.977256 
L 302.832105 130.753859 
L 303.847666 130.64678 
L 304.863227 128.561229 
L 305.878788 131.21577 
L 306.894349 131.103594 
L 307.90991 130.84557 
L 308.925471 128.831543 
L 309.941032 131.471164 
L 310.956593 131.394809 
L 311.972154 131.049429 
L 312.987715 129.115636 
L 314.003276 131.749854 
L 315.018837 131.872757 
L 316.034398 131.41779 
L 317.049959 129.108259 
L 318.06552 132.020042 
L 319.081081 132.172146 
L 320.096642 131.637891 
L 321.112203 129.410781 
L 322.127764 132.29732 
L 323.143325 132.533895 
L 324.158886 131.927166 
L 325.174447 129.604094 
L 326.190008 132.596075 
L 327.205569 132.899123 
L 328.22113 132.056096 
L 329.236691 130.11124 
L 330.252252 132.862353 
L 331.267813 133.202803 
L 332.283374 132.290047 
L 333.298935 130.446768 
L 334.314496 133.128074 
L 335.330057 133.336679 
L 336.345618 132.713861 
L 337.361179 130.513426 
L 338.37674 133.500382 
L 339.392301 133.936144 
L 340.407862 132.767413 
L 341.423423 131.209747 
L 342.438984 133.699505 
L 343.454545 133.420767 
L 344.470106 133.318913 
L 345.485667 131.216551 
L 346.501229 134.191219 
L 347.51679 134.663698 
L 348.532351 133.435347 
L 349.547912 131.879042 
L 350.563473 134.432075 
L 351.579034 134.582261 
L 352.594595 133.946988 
L 353.610156 132.003973 
L 354.625717 134.901318 
L 355.641278 135.420447 
L 357.6724 132.661665 
L 358.687961 135.173636 
L 359.703522 134.888326 
L 360.719083 134.833516 
L 361.734644 132.590926 
L 362.750205 135.798241 
L 363.765766 136.315745 
L 364.781327 135.024305 
L 365.796888 133.314055 
L 366.812449 136.10243 
L 367.82801 136.634672 
L 369.859132 133.957166 
L 370.874693 136.451251 
L 371.890254 135.35237 
L 372.905815 136.519903 
L 373.921376 133.787277 
L 374.936937 137.246876 
L 375.952498 137.713693 
L 376.968059 136.532102 
L 377.98362 134.482065 
L 378.999181 137.646761 
L 380.014742 138.219443 
L 381.030303 136.638671 
L 382.045864 135.518589 
L 383.061425 138.061523 
L 384.076986 138.537159 
L 385.092547 137.395111 
L 386.108108 135.669715 
L 387.123669 138.695601 
L 388.13923 139.274413 
L 389.154791 137.534824 
L 390.170352 136.71545 
L 391.185913 139.091873 
L 392.201474 138.836047 
L 393.217035 138.827347 
L 394.232596 136.313662 
L 395.248157 140.002047 
L 399.310401 140.453978 
L 400.325962 140.861842 
L 402.357084 137.958125 
L 403.372645 140.933407 
L 404.388206 141.252868 
L 405.403767 140.121683 
L 406.419328 138.568473 
L 407.434889 141.662571 
L 408.45045 142.257338 
L 409.466011 140.196002 
L 410.481572 139.948472 
L 411.497133 142.209346 
L 412.512695 141.759905 
L 413.528256 141.966823 
L 414.543817 139.260707 
L 415.559378 143.295243 
L 416.574939 143.016784 
L 417.5905 141.633375 
L 418.606061 143.472299 
L 419.621622 143.04152 
L 420.637183 143.464007 
L 421.652744 140.380669 
L 422.668305 144.7609 
L 423.683866 143.511641 
L 424.699427 141.76688 
L 425.714988 145.273967 
L 426.730549 144.847503 
L 427.74611 143.017026 
L 428.761671 145.797853 
L 431.808354 146.479716 
L 432.823915 145.711832 
L 433.839476 142.885359 
L 434.855037 147.223725 
L 435.870598 146.025564 
L 436.886159 144.073354 
L 437.90172 147.881375 
L 438.917281 146.994276 
L 439.932842 144.465774 
L 440.948403 148.674912 
L 442.979525 145.806676 
L 443.995086 149.338089 
L 445.010647 148.540588 
L 446.026208 146.546067 
L 447.041769 150.107339 
L 448.05733 149.189581 
L 449.072891 147.162934 
L 450.088452 150.930674 
L 452.119574 148.075873 
L 453.135135 151.735562 
L 454.150696 150.488071 
L 455.166257 148.757152 
L 456.181818 152.605862 
L 457.197379 151.105417 
L 458.21294 149.826045 
L 459.228501 153.444341 
L 461.259623 150.909514 
L 462.275184 154.271518 
L 463.290745 153.295987 
L 464.306306 152.537935 
L 465.321867 154.912233 
L 466.337428 155.363139 
L 467.352989 154.68806 
L 468.36855 154.893102 
L 469.384111 155.622675 
L 470.399672 156.842218 
L 471.415233 154.612924 
L 472.430794 154.422922 
L 473.446355 157.512991 
L 474.461916 156.904898 
L 475.477477 158.15547 
L 476.493038 156.896577 
L 477.5086 156.016976 
L 478.524161 159.149231 
L 479.539722 158.556789 
L 480.555283 160.044029 
L 481.570844 158.027162 
L 482.586405 157.686469 
L 483.601966 160.885999 
L 484.617527 160.120834 
L 485.633088 161.74426 
L 486.648649 159.941508 
L 487.66421 159.628683 
L 488.679771 162.665176 
L 489.695332 162.002965 
L 490.710893 163.664157 
L 491.726454 161.783512 
L 492.742015 161.910095 
L 493.757576 164.345874 
L 494.773137 164.413122 
L 495.788698 165.159004 
L 496.804259 164.581637 
L 497.81982 166.172683 
L 498.835381 164.39872 
L 499.850942 165.580141 
L 501.882064 167.521767 
L 502.897625 166.693296 
L 503.913186 168.487407 
L 504.928747 166.93495 
L 505.944308 169.256938 
L 506.959869 167.561729 
L 507.97543 169.809302 
L 508.990991 168.671596 
L 510.006552 170.965514 
L 511.022113 169.305639 
L 512.037674 171.795685 
L 513.053235 170.054599 
L 514.068796 172.632843 
L 515.084357 170.989095 
L 516.099918 173.452226 
L 517.115479 172.064011 
L 518.13104 174.167606 
L 519.146601 173.286366 
L 520.162162 174.89089 
L 521.177723 174.253327 
L 522.193284 175.654257 
L 523.208845 175.41142 
L 524.224406 176.354673 
L 525.239967 176.503777 
L 526.255528 177.170965 
L 527.271089 177.447607 
L 528.28665 178.005159 
L 529.302211 178.314996 
L 530.317772 178.940179 
L 531.333333 179.231814 
L 532.348894 179.780323 
L 533.364455 180.174587 
L 534.380016 180.699396 
L 535.395577 181.034094 
L 536.411138 181.698284 
L 537.426699 182.015473 
L 538.44226 182.597485 
L 539.457821 182.951928 
L 540.473382 183.546731 
L 541.488943 183.9105 
L 542.504505 184.483066 
L 544.535627 185.429079 
L 549.613432 187.960868 
L 551.644554 188.953723 
L 554.691237 190.463195 
L 557.73792 192.101017 
L 558.753481 192.552882 
L 560.784603 193.651152 
L 566.877969 196.910824 
L 567.89353 197.56283 
L 569.924652 198.589573 
L 570.940213 199.227501 
L 571.955774 199.719872 
L 572.971335 200.371065 
L 575.002457 201.459295 
L 579.064701 203.755875 
L 580.080262 204.455088 
L 583.126945 206.119305 
L 585.158067 207.384468 
L 589.220311 209.834821 
L 595.313677 213.579801 
L 606.484848 220.823497 
L 617.65602 228.360963 
L 621.718264 231.226746 
L 622.733825 231.824918 
L 626.796069 234.78189 
L 628.827191 236.217015 
L 637.96724 242.880785 
L 657.262899 257.726429 
L 667.418509 265.97812 
L 683.667486 279.569927 
L 690.776413 285.814654 
L 697.88534 292.231888 
L 707.025389 300.648998 
L 719.212121 312.162235 
L 732.414414 324.960116 
L 749.678952 341.982947 
L 772.021294 364.373874 
L 798.42588 390.630123 
L 816.705979 408.655538 
L 827.87715 419.230837 
L 841.079443 431.309269 
L 855.297297 443.756915 
L 867.484029 453.858768 
L 878.655201 462.785473 
L 887.79525 469.803426 
L 898.966421 478.023702 
L 908.10647 484.432655 
L 916.230958 489.878286 
L 925.371007 495.747845 
L 934.511057 501.373134 
L 944.666667 507.34551 
L 954.822277 513.036757 
L 964.977887 518.466481 
L 976.149058 524.135979 
L 986.304668 529.037771 
L 996.460278 533.715339 
L 1007.63145 538.62953 
L 1019.818182 543.745856 
L 1032.004914 548.631629 
L 1043.176085 552.864567 
L 1057.393939 557.988557 
L 1071.611794 562.861991 
L 1085.829648 567.496601 
L 1100.047502 571.904515 
L 1114.265356 576.089564 
L 1129.498771 580.318346 
L 1144.732187 584.312031 
L 1159.965602 588.064495 
L 1176.214578 591.823518 
L 1192.463554 595.354901 
L 1207.69697 598.453761 
L 1225.977068 601.916029 
L 1245.272727 605.290909 
L 1245.272727 605.290909 
" style="fill:none;stroke:#1f77b4;stroke-linecap:round;stroke-width:1.5;"/>
   </g>
   <g id="patch_3">
    <path d="M 180 630 
L 180 86.4 
" style="fill:none;stroke:#ffffff;stroke-linecap:square;stroke-linejoin:miter;stroke-width:0.8;"/>
   </g>
   <g id="patch_4">
    <path d="M 1296 630 
L 1296 86.4 
" style="fill:none;stroke:#ffffff;stroke-linecap:square;stroke-linejoin:miter;stroke-width:0.8;"/>
   </g>
   <g id="patch_5">
    <path d="M 180 630 
L 1296 630 
" style="fill:none;stroke:#ffffff;stroke-linecap:square;stroke-linejoin:miter;stroke-width:0.8;"/>
   </g>
   <g id="patch_6">
    <path d="M 180 86.4 
L 1296 86.4 
" style="fill:none;stroke:#ffffff;stroke-linecap:square;stroke-linejoin:miter;stroke-width:0.8;"/>
   </g>
   <g id="text_16">
    <!-- Learning Curve -->
    <g style="fill:#262626;" transform="translate(676.468125 80.4)scale(0.18 -0.18)">
     <defs>
      <path d="M 319 -275 
L 866 -356 
Q 900 -609 1056 -725 
Q 1266 -881 1628 -881 
Q 2019 -881 2231 -725 
Q 2444 -569 2519 -288 
Q 2563 -116 2559 434 
Q 2191 0 1641 0 
Q 956 0 581 494 
Q 206 988 206 1678 
Q 206 2153 378 2554 
Q 550 2956 876 3175 
Q 1203 3394 1644 3394 
Q 2231 3394 2613 2919 
L 2613 3319 
L 3131 3319 
L 3131 450 
Q 3131 -325 2973 -648 
Q 2816 -972 2473 -1159 
Q 2131 -1347 1631 -1347 
Q 1038 -1347 672 -1080 
Q 306 -813 319 -275 
z
M 784 1719 
Q 784 1066 1043 766 
Q 1303 466 1694 466 
Q 2081 466 2343 764 
Q 2606 1063 2606 1700 
Q 2606 2309 2336 2618 
Q 2066 2928 1684 2928 
Q 1309 2928 1046 2623 
Q 784 2319 784 1719 
z
" id="ArialMT-67" transform="scale(0.015625)"/>
      <path d="M 3763 1606 
L 4369 1453 
Q 4178 706 3683 314 
Q 3188 -78 2472 -78 
Q 1731 -78 1267 223 
Q 803 525 561 1097 
Q 319 1669 319 2325 
Q 319 3041 592 3573 
Q 866 4106 1370 4382 
Q 1875 4659 2481 4659 
Q 3169 4659 3637 4309 
Q 4106 3959 4291 3325 
L 3694 3184 
Q 3534 3684 3231 3912 
Q 2928 4141 2469 4141 
Q 1941 4141 1586 3887 
Q 1231 3634 1087 3207 
Q 944 2781 944 2328 
Q 944 1744 1114 1308 
Q 1284 872 1643 656 
Q 2003 441 2422 441 
Q 2931 441 3284 734 
Q 3638 1028 3763 1606 
z
" id="ArialMT-43" transform="scale(0.015625)"/>
      <path d="M 1344 0 
L 81 3319 
L 675 3319 
L 1388 1331 
Q 1503 1009 1600 663 
Q 1675 925 1809 1294 
L 2547 3319 
L 3125 3319 
L 1869 0 
L 1344 0 
z
" id="ArialMT-76" transform="scale(0.015625)"/>
     </defs>
     <use xlink:href="#ArialMT-4c"/>
     <use x="55.615234" xlink:href="#ArialMT-65"/>
     <use x="111.230469" xlink:href="#ArialMT-61"/>
     <use x="166.845703" xlink:href="#ArialMT-72"/>
     <use x="200.146484" xlink:href="#ArialMT-6e"/>
     <use x="255.761719" xlink:href="#ArialMT-69"/>
     <use x="277.978516" xlink:href="#ArialMT-6e"/>
     <use x="333.59375" xlink:href="#ArialMT-67"/>
     <use x="389.208984" xlink:href="#ArialMT-20"/>
     <use x="416.992188" xlink:href="#ArialMT-43"/>
     <use x="489.208984" xlink:href="#ArialMT-75"/>
     <use x="544.824219" xlink:href="#ArialMT-72"/>
     <use x="578.125" xlink:href="#ArialMT-76"/>
     <use x="628.125" xlink:href="#ArialMT-65"/>
    </g>
   </g>
  </g>
 </g>
 <defs>
  <clipPath id="p2ce3f942b1">
   <rect height="543.6" width="1116" x="180" y="86.4"/>
  </clipPath>
 </defs>
</svg>
