<?xml version="1.0" encoding="utf-8" standalone="no"?>
<!DOCTYPE svg PUBLIC "-//W3C//DTD SVG 1.1//EN"
  "http://www.w3.org/Graphics/SVG/1.1/DTD/svg11.dtd">
<svg height="1080pt" version="1.1" viewBox="0 0 1440 1080" width="1440pt" xmlns="http://www.w3.org/2000/svg" xmlns:xlink="http://www.w3.org/1999/xlink">
 <metadata>
  <rdf:RDF xmlns:cc="http://creativecommons.org/ns#" xmlns:dc="http://purl.org/dc/elements/1.1/" xmlns:rdf="http://www.w3.org/1999/02/22-rdf-syntax-ns#">
   <cc:Work>
    <dc:type rdf:resource="http://purl.org/dc/dcmitype/StillImage"/>
    <dc:date>2022-12-23T12:07:37.862553</dc:date>
    <dc:format>image/svg+xml</dc:format>
    <dc:creator>
     <cc:Agent>
      <dc:title>Matplotlib v3.4.1, https://matplotlib.org/</dc:title>
     </cc:Agent>
    </dc:creator>
   </cc:Work>
  </rdf:RDF>
 </metadata>
 <defs>
  <style type="text/css">*{stroke-linecap:butt;stroke-linejoin:round;}</style>
 </defs>
 <g id="figure_1">
  <g id="patch_1">
   <path d="M 0 1080 
L 1440 1080 
L 1440 0 
L 0 0 
z
" style="fill:none;"/>
  </g>
  <g id="axes_1">
   <g id="patch_2">
    <path d="M 180 945 
L 1296 945 
L 1296 129.6 
L 180 129.6 
z
" style="fill:#272822;"/>
   </g>
   <g id="matplotlib.axis_1">
    <g id="xtick_1">
     <g id="text_1">
      <!-- −0.5 -->
      <g style="fill:#262626;" transform="translate(166.246899 964.168281)scale(0.17 -0.17)">
       <defs>
        <path d="M 3381 1997 
L 356 1997 
L 356 2522 
L 3381 2522 
L 3381 1997 
z
" id="ArialMT-2212" transform="scale(0.015625)"/>
        <path d="M 266 2259 
Q 266 3072 433 3567 
Q 600 4063 929 4331 
Q 1259 4600 1759 4600 
Q 2128 4600 2406 4451 
Q 2684 4303 2865 4023 
Q 3047 3744 3150 3342 
Q 3253 2941 3253 2259 
Q 3253 1453 3087 958 
Q 2922 463 2592 192 
Q 2263 -78 1759 -78 
Q 1097 -78 719 397 
Q 266 969 266 2259 
z
M 844 2259 
Q 844 1131 1108 757 
Q 1372 384 1759 384 
Q 2147 384 2411 759 
Q 2675 1134 2675 2259 
Q 2675 3391 2411 3762 
Q 2147 4134 1753 4134 
Q 1366 4134 1134 3806 
Q 844 3388 844 2259 
z
" id="ArialMT-30" transform="scale(0.015625)"/>
        <path d="M 581 0 
L 581 641 
L 1222 641 
L 1222 0 
L 581 0 
z
" id="ArialMT-2e" transform="scale(0.015625)"/>
        <path d="M 266 1200 
L 856 1250 
Q 922 819 1161 601 
Q 1400 384 1738 384 
Q 2144 384 2425 690 
Q 2706 997 2706 1503 
Q 2706 1984 2436 2262 
Q 2166 2541 1728 2541 
Q 1456 2541 1237 2417 
Q 1019 2294 894 2097 
L 366 2166 
L 809 4519 
L 3088 4519 
L 3088 3981 
L 1259 3981 
L 1013 2750 
Q 1425 3038 1878 3038 
Q 2478 3038 2890 2622 
Q 3303 2206 3303 1553 
Q 3303 931 2941 478 
Q 2500 -78 1738 -78 
Q 1113 -78 717 272 
Q 322 622 266 1200 
z
" id="ArialMT-35" transform="scale(0.015625)"/>
       </defs>
       <use xlink:href="#ArialMT-2212"/>
       <use x="58.398438" xlink:href="#ArialMT-30"/>
       <use x="114.013672" xlink:href="#ArialMT-2e"/>
       <use x="141.796875" xlink:href="#ArialMT-35"/>
      </g>
     </g>
    </g>
    <g id="xtick_2">
     <g id="text_2">
      <!-- 0.0 -->
      <g style="fill:#262626;" transform="translate(418.73592 964.168281)scale(0.17 -0.17)">
       <use xlink:href="#ArialMT-30"/>
       <use x="55.615234" xlink:href="#ArialMT-2e"/>
       <use x="83.398438" xlink:href="#ArialMT-30"/>
      </g>
     </g>
    </g>
    <g id="xtick_3">
     <g id="text_3">
      <!-- 0.5 -->
      <g style="fill:#262626;" transform="translate(666.26041 964.168281)scale(0.17 -0.17)">
       <use xlink:href="#ArialMT-30"/>
       <use x="55.615234" xlink:href="#ArialMT-2e"/>
       <use x="83.398438" xlink:href="#ArialMT-35"/>
      </g>
     </g>
    </g>
    <g id="xtick_4">
     <g id="text_4">
      <!-- 1.0 -->
      <g style="fill:#262626;" transform="translate(913.784901 964.168281)scale(0.17 -0.17)">
       <defs>
        <path d="M 2384 0 
L 1822 0 
L 1822 3584 
Q 1619 3391 1289 3197 
Q 959 3003 697 2906 
L 697 3450 
Q 1169 3672 1522 3987 
Q 1875 4303 2022 4600 
L 2384 4600 
L 2384 0 
z
" id="ArialMT-31" transform="scale(0.015625)"/>
       </defs>
       <use xlink:href="#ArialMT-31"/>
       <use x="55.615234" xlink:href="#ArialMT-2e"/>
       <use x="83.398438" xlink:href="#ArialMT-30"/>
      </g>
     </g>
    </g>
    <g id="xtick_5">
     <g id="text_5">
      <!-- 1.5 -->
      <g style="fill:#262626;" transform="translate(1161.309391 964.168281)scale(0.17 -0.17)">
       <use xlink:href="#ArialMT-31"/>
       <use x="55.615234" xlink:href="#ArialMT-2e"/>
       <use x="83.398438" xlink:href="#ArialMT-35"/>
      </g>
     </g>
    </g>
    <g id="text_6">
     <!-- State of A -->
     <g style="fill:#262626;" transform="translate(698.972344 984.431094)scale(0.18 -0.18)">
      <defs>
       <path d="M 288 1472 
L 859 1522 
Q 900 1178 1048 958 
Q 1197 738 1509 602 
Q 1822 466 2213 466 
Q 2559 466 2825 569 
Q 3091 672 3220 851 
Q 3350 1031 3350 1244 
Q 3350 1459 3225 1620 
Q 3100 1781 2813 1891 
Q 2628 1963 1997 2114 
Q 1366 2266 1113 2400 
Q 784 2572 623 2826 
Q 463 3081 463 3397 
Q 463 3744 659 4045 
Q 856 4347 1234 4503 
Q 1613 4659 2075 4659 
Q 2584 4659 2973 4495 
Q 3363 4331 3572 4012 
Q 3781 3694 3797 3291 
L 3216 3247 
Q 3169 3681 2898 3903 
Q 2628 4125 2100 4125 
Q 1550 4125 1298 3923 
Q 1047 3722 1047 3438 
Q 1047 3191 1225 3031 
Q 1400 2872 2139 2705 
Q 2878 2538 3153 2413 
Q 3553 2228 3743 1945 
Q 3934 1663 3934 1294 
Q 3934 928 3725 604 
Q 3516 281 3123 101 
Q 2731 -78 2241 -78 
Q 1619 -78 1198 103 
Q 778 284 539 648 
Q 300 1013 288 1472 
z
" id="ArialMT-53" transform="scale(0.015625)"/>
       <path d="M 1650 503 
L 1731 6 
Q 1494 -44 1306 -44 
Q 1000 -44 831 53 
Q 663 150 594 308 
Q 525 466 525 972 
L 525 2881 
L 113 2881 
L 113 3319 
L 525 3319 
L 525 4141 
L 1084 4478 
L 1084 3319 
L 1650 3319 
L 1650 2881 
L 1084 2881 
L 1084 941 
Q 1084 700 1114 631 
Q 1144 563 1211 522 
Q 1278 481 1403 481 
Q 1497 481 1650 503 
z
" id="ArialMT-74" transform="scale(0.015625)"/>
       <path d="M 2588 409 
Q 2275 144 1986 34 
Q 1697 -75 1366 -75 
Q 819 -75 525 192 
Q 231 459 231 875 
Q 231 1119 342 1320 
Q 453 1522 633 1644 
Q 813 1766 1038 1828 
Q 1203 1872 1538 1913 
Q 2219 1994 2541 2106 
Q 2544 2222 2544 2253 
Q 2544 2597 2384 2738 
Q 2169 2928 1744 2928 
Q 1347 2928 1158 2789 
Q 969 2650 878 2297 
L 328 2372 
Q 403 2725 575 2942 
Q 747 3159 1072 3276 
Q 1397 3394 1825 3394 
Q 2250 3394 2515 3294 
Q 2781 3194 2906 3042 
Q 3031 2891 3081 2659 
Q 3109 2516 3109 2141 
L 3109 1391 
Q 3109 606 3145 398 
Q 3181 191 3288 0 
L 2700 0 
Q 2613 175 2588 409 
z
M 2541 1666 
Q 2234 1541 1622 1453 
Q 1275 1403 1131 1340 
Q 988 1278 909 1158 
Q 831 1038 831 891 
Q 831 666 1001 516 
Q 1172 366 1500 366 
Q 1825 366 2078 508 
Q 2331 650 2450 897 
Q 2541 1088 2541 1459 
L 2541 1666 
z
" id="ArialMT-61" transform="scale(0.015625)"/>
       <path d="M 2694 1069 
L 3275 997 
Q 3138 488 2766 206 
Q 2394 -75 1816 -75 
Q 1088 -75 661 373 
Q 234 822 234 1631 
Q 234 2469 665 2931 
Q 1097 3394 1784 3394 
Q 2450 3394 2872 2941 
Q 3294 2488 3294 1666 
Q 3294 1616 3291 1516 
L 816 1516 
Q 847 969 1125 678 
Q 1403 388 1819 388 
Q 2128 388 2347 550 
Q 2566 713 2694 1069 
z
M 847 1978 
L 2700 1978 
Q 2663 2397 2488 2606 
Q 2219 2931 1791 2931 
Q 1403 2931 1139 2672 
Q 875 2413 847 1978 
z
" id="ArialMT-65" transform="scale(0.015625)"/>
       <path id="ArialMT-20" transform="scale(0.015625)"/>
       <path d="M 213 1659 
Q 213 2581 725 3025 
Q 1153 3394 1769 3394 
Q 2453 3394 2887 2945 
Q 3322 2497 3322 1706 
Q 3322 1066 3130 698 
Q 2938 331 2570 128 
Q 2203 -75 1769 -75 
Q 1072 -75 642 372 
Q 213 819 213 1659 
z
M 791 1659 
Q 791 1022 1069 705 
Q 1347 388 1769 388 
Q 2188 388 2466 706 
Q 2744 1025 2744 1678 
Q 2744 2294 2464 2611 
Q 2184 2928 1769 2928 
Q 1347 2928 1069 2612 
Q 791 2297 791 1659 
z
" id="ArialMT-6f" transform="scale(0.015625)"/>
       <path d="M 556 0 
L 556 2881 
L 59 2881 
L 59 3319 
L 556 3319 
L 556 3672 
Q 556 4006 616 4169 
Q 697 4388 901 4523 
Q 1106 4659 1475 4659 
Q 1713 4659 2000 4603 
L 1916 4113 
Q 1741 4144 1584 4144 
Q 1328 4144 1222 4034 
Q 1116 3925 1116 3625 
L 1116 3319 
L 1763 3319 
L 1763 2881 
L 1116 2881 
L 1116 0 
L 556 0 
z
" id="ArialMT-66" transform="scale(0.015625)"/>
       <path d="M -9 0 
L 1750 4581 
L 2403 4581 
L 4278 0 
L 3588 0 
L 3053 1388 
L 1138 1388 
L 634 0 
L -9 0 
z
M 1313 1881 
L 2866 1881 
L 2388 3150 
Q 2169 3728 2063 4100 
Q 1975 3659 1816 3225 
L 1313 1881 
z
" id="ArialMT-41" transform="scale(0.015625)"/>
      </defs>
      <use xlink:href="#ArialMT-53"/>
      <use x="66.699219" xlink:href="#ArialMT-74"/>
      <use x="94.482422" xlink:href="#ArialMT-61"/>
      <use x="150.097656" xlink:href="#ArialMT-74"/>
      <use x="177.880859" xlink:href="#ArialMT-65"/>
      <use x="233.496094" xlink:href="#ArialMT-20"/>
      <use x="261.279297" xlink:href="#ArialMT-6f"/>
      <use x="316.894531" xlink:href="#ArialMT-66"/>
      <use x="344.677734" xlink:href="#ArialMT-20"/>
      <use x="366.960938" xlink:href="#ArialMT-41"/>
     </g>
    </g>
   </g>
   <g id="matplotlib.axis_2">
    <g id="ytick_1">
     <g id="text_7">
      <!-- −0.5 -->
      <g style="fill:#262626;" transform="translate(139.440937 914.128879)scale(0.17 -0.17)">
       <use xlink:href="#ArialMT-2212"/>
       <use x="58.398438" xlink:href="#ArialMT-30"/>
       <use x="114.013672" xlink:href="#ArialMT-2e"/>
       <use x="141.796875" xlink:href="#ArialMT-35"/>
      </g>
     </g>
    </g>
    <g id="ytick_2">
     <g id="text_8">
      <!-- 0.0 -->
      <g style="fill:#262626;" transform="translate(149.37 742.909974)scale(0.17 -0.17)">
       <use xlink:href="#ArialMT-30"/>
       <use x="55.615234" xlink:href="#ArialMT-2e"/>
       <use x="83.398438" xlink:href="#ArialMT-30"/>
      </g>
     </g>
    </g>
    <g id="ytick_3">
     <g id="text_9">
      <!-- 0.5 -->
      <g style="fill:#262626;" transform="translate(149.37 571.691069)scale(0.17 -0.17)">
       <use xlink:href="#ArialMT-30"/>
       <use x="55.615234" xlink:href="#ArialMT-2e"/>
       <use x="83.398438" xlink:href="#ArialMT-35"/>
      </g>
     </g>
    </g>
    <g id="ytick_4">
     <g id="text_10">
      <!-- 1.0 -->
      <g style="fill:#262626;" transform="translate(149.37 400.472164)scale(0.17 -0.17)">
       <use xlink:href="#ArialMT-31"/>
       <use x="55.615234" xlink:href="#ArialMT-2e"/>
       <use x="83.398438" xlink:href="#ArialMT-30"/>
      </g>
     </g>
    </g>
    <g id="ytick_5">
     <g id="text_11">
      <!-- 1.5 -->
      <g style="fill:#262626;" transform="translate(149.37 229.253259)scale(0.17 -0.17)">
       <use xlink:href="#ArialMT-31"/>
       <use x="55.615234" xlink:href="#ArialMT-2e"/>
       <use x="83.398438" xlink:href="#ArialMT-35"/>
      </g>
     </g>
    </g>
    <g id="text_12">
     <!-- State of B -->
     <g style="fill:#262626;" transform="translate(131.863437 576.822656)rotate(-90)scale(0.18 -0.18)">
      <defs>
       <path d="M 469 0 
L 469 4581 
L 2188 4581 
Q 2713 4581 3030 4442 
Q 3347 4303 3526 4014 
Q 3706 3725 3706 3409 
Q 3706 3116 3547 2856 
Q 3388 2597 3066 2438 
Q 3481 2316 3704 2022 
Q 3928 1728 3928 1328 
Q 3928 1006 3792 729 
Q 3656 453 3456 303 
Q 3256 153 2954 76 
Q 2653 0 2216 0 
L 469 0 
z
M 1075 2656 
L 2066 2656 
Q 2469 2656 2644 2709 
Q 2875 2778 2992 2937 
Q 3109 3097 3109 3338 
Q 3109 3566 3000 3739 
Q 2891 3913 2687 3977 
Q 2484 4041 1991 4041 
L 1075 4041 
L 1075 2656 
z
M 1075 541 
L 2216 541 
Q 2509 541 2628 563 
Q 2838 600 2978 687 
Q 3119 775 3209 942 
Q 3300 1109 3300 1328 
Q 3300 1584 3169 1773 
Q 3038 1963 2805 2039 
Q 2572 2116 2134 2116 
L 1075 2116 
L 1075 541 
z
" id="ArialMT-42" transform="scale(0.015625)"/>
      </defs>
      <use xlink:href="#ArialMT-53"/>
      <use x="66.699219" xlink:href="#ArialMT-74"/>
      <use x="94.482422" xlink:href="#ArialMT-61"/>
      <use x="150.097656" xlink:href="#ArialMT-74"/>
      <use x="177.880859" xlink:href="#ArialMT-65"/>
      <use x="233.496094" xlink:href="#ArialMT-20"/>
      <use x="261.279297" xlink:href="#ArialMT-6f"/>
      <use x="316.894531" xlink:href="#ArialMT-66"/>
      <use x="344.677734" xlink:href="#ArialMT-20"/>
      <use x="372.460938" xlink:href="#ArialMT-42"/>
     </g>
    </g>
   </g>
   <g id="PathCollection_1">
    <defs>
     <path d="M 0 3.535534 
C 0.937635 3.535534 1.836992 3.163008 2.5 2.5 
C 3.163008 1.836992 3.535534 0.937635 3.535534 -0 
C 3.535534 -0.937635 3.163008 -1.836992 2.5 -2.5 
C 1.836992 -3.163008 0.937635 -3.535534 0 -3.535534 
C -0.937635 -3.535534 -1.836992 -3.163008 -2.5 -2.5 
C -3.163008 -1.836992 -3.535534 -0.937635 -3.535534 0 
C -3.535534 0.937635 -3.163008 1.836992 -2.5 2.5 
C -1.836992 3.163008 -0.937635 3.535534 0 3.535534 
z
" id="C0_0_205439b6a3"/>
    </defs>
    <g clip-path="url(#p2b514e3a49)">
     <use style="fill:#2f79b5;stroke:#ffffff;" x="400.73166" xlink:href="#C0_0_205439b6a3" y="601.790252"/>
    </g>
    <g clip-path="url(#p2b514e3a49)">
     <use style="fill:#2f79b5;stroke:#ffffff;" x="378.301125" xlink:href="#C0_0_205439b6a3" y="785.977535"/>
    </g>
    <g clip-path="url(#p2b514e3a49)">
     <use style="fill:#2f79b5;stroke:#ffffff;" x="415.626255" xlink:href="#C0_0_205439b6a3" y="821.708239"/>
    </g>
    <g clip-path="url(#p2b514e3a49)">
     <use style="fill:#2f79b5;stroke:#ffffff;" x="452.249328" xlink:href="#C0_0_205439b6a3" y="659.634944"/>
    </g>
    <g clip-path="url(#p2b514e3a49)">
     <use style="fill:#2f79b5;stroke:#ffffff;" x="403.567118" xlink:href="#C0_0_205439b6a3" y="743.193064"/>
    </g>
    <g clip-path="url(#p2b514e3a49)">
     <use style="fill:#2f79b5;stroke:#ffffff;" x="348.237945" xlink:href="#C0_0_205439b6a3" y="684.389996"/>
    </g>
    <g clip-path="url(#p2b514e3a49)">
     <use style="fill:#2f79b5;stroke:#ffffff;" x="462.239537" xlink:href="#C0_0_205439b6a3" y="823.276316"/>
    </g>
    <g clip-path="url(#p2b514e3a49)">
     <use style="fill:#2f79b5;stroke:#ffffff;" x="468.386476" xlink:href="#C0_0_205439b6a3" y="769.03027"/>
    </g>
    <g clip-path="url(#p2b514e3a49)">
     <use style="fill:#2f79b5;stroke:#ffffff;" x="502.855394" xlink:href="#C0_0_205439b6a3" y="767.83677"/>
    </g>
    <g clip-path="url(#p2b514e3a49)">
     <use style="fill:#2f79b5;stroke:#ffffff;" x="504.117479" xlink:href="#C0_0_205439b6a3" y="859.188549"/>
    </g>
    <g clip-path="url(#p2b514e3a49)">
     <use style="fill:#2f79b5;stroke:#ffffff;" x="522.674355" xlink:href="#C0_0_205439b6a3" y="771.390654"/>
    </g>
    <g clip-path="url(#p2b514e3a49)">
     <use style="fill:#2f79b5;stroke:#ffffff;" x="522.385286" xlink:href="#C0_0_205439b6a3" y="711.21042"/>
    </g>
    <g clip-path="url(#p2b514e3a49)">
     <use style="fill:#2f79b5;stroke:#ffffff;" x="322.144853" xlink:href="#C0_0_205439b6a3" y="726.084214"/>
    </g>
    <g clip-path="url(#p2b514e3a49)">
     <use style="fill:#2f79b5;stroke:#ffffff;" x="386.436739" xlink:href="#C0_0_205439b6a3" y="728.507263"/>
    </g>
    <g clip-path="url(#p2b514e3a49)">
     <use style="fill:#2f79b5;stroke:#ffffff;" x="394.138344" xlink:href="#C0_0_205439b6a3" y="752.57308"/>
    </g>
    <g clip-path="url(#p2b514e3a49)">
     <use style="fill:#2f79b5;stroke:#ffffff;" x="437.153486" xlink:href="#C0_0_205439b6a3" y="787.484618"/>
    </g>
    <g clip-path="url(#p2b514e3a49)">
     <use style="fill:#2f79b5;stroke:#ffffff;" x="365.327797" xlink:href="#C0_0_205439b6a3" y="609.614057"/>
    </g>
    <g clip-path="url(#p2b514e3a49)">
     <use style="fill:#2f79b5;stroke:#ffffff;" x="444.458462" xlink:href="#C0_0_205439b6a3" y="717.819945"/>
    </g>
    <g clip-path="url(#p2b514e3a49)">
     <use style="fill:#2f79b5;stroke:#ffffff;" x="385.161226" xlink:href="#C0_0_205439b6a3" y="629.407288"/>
    </g>
    <g clip-path="url(#p2b514e3a49)">
     <use style="fill:#2f79b5;stroke:#ffffff;" x="497.082811" xlink:href="#C0_0_205439b6a3" y="575.783703"/>
    </g>
    <g clip-path="url(#p2b514e3a49)">
     <use style="fill:#2f79b5;stroke:#ffffff;" x="412.21245" xlink:href="#C0_0_205439b6a3" y="747.314632"/>
    </g>
    <g clip-path="url(#p2b514e3a49)">
     <use style="fill:#2f79b5;stroke:#ffffff;" x="372.606663" xlink:href="#C0_0_205439b6a3" y="790.429517"/>
    </g>
    <g clip-path="url(#p2b514e3a49)">
     <use style="fill:#2f79b5;stroke:#ffffff;" x="402.602752" xlink:href="#C0_0_205439b6a3" y="564.550372"/>
    </g>
    <g clip-path="url(#p2b514e3a49)">
     <use style="fill:#2f79b5;stroke:#ffffff;" x="462.740043" xlink:href="#C0_0_205439b6a3" y="816.005784"/>
    </g>
    <g clip-path="url(#p2b514e3a49)">
     <use style="fill:#2f79b5;stroke:#ffffff;" x="469.643752" xlink:href="#C0_0_205439b6a3" y="702.951218"/>
    </g>
    <g clip-path="url(#p2b514e3a49)">
     <use style="fill:#2f79b5;stroke:#ffffff;" x="459.748922" xlink:href="#C0_0_205439b6a3" y="746.327371"/>
    </g>
    <g clip-path="url(#p2b514e3a49)">
     <use style="fill:#2f79b5;stroke:#ffffff;" x="535.105532" xlink:href="#C0_0_205439b6a3" y="775.928634"/>
    </g>
    <g clip-path="url(#p2b514e3a49)">
     <use style="fill:#2f79b5;stroke:#ffffff;" x="384.447195" xlink:href="#C0_0_205439b6a3" y="780.379687"/>
    </g>
    <g clip-path="url(#p2b514e3a49)">
     <use style="fill:#2f79b5;stroke:#ffffff;" x="502.986812" xlink:href="#C0_0_205439b6a3" y="649.955341"/>
    </g>
    <g clip-path="url(#p2b514e3a49)">
     <use style="fill:#2f79b5;stroke:#ffffff;" x="489.109752" xlink:href="#C0_0_205439b6a3" y="721.238014"/>
    </g>
    <g clip-path="url(#p2b514e3a49)">
     <use style="fill:#2f79b5;stroke:#ffffff;" x="278.608473" xlink:href="#C0_0_205439b6a3" y="620.110945"/>
    </g>
    <g clip-path="url(#p2b514e3a49)">
     <use style="fill:#2f79b5;stroke:#ffffff;" x="421.228676" xlink:href="#C0_0_205439b6a3" y="723.455204"/>
    </g>
    <g clip-path="url(#p2b514e3a49)">
     <use style="fill:#2f79b5;stroke:#ffffff;" x="533.236748" xlink:href="#C0_0_205439b6a3" y="755.750469"/>
    </g>
    <g clip-path="url(#p2b514e3a49)">
     <use style="fill:#2f79b5;stroke:#ffffff;" x="466.667735" xlink:href="#C0_0_205439b6a3" y="789.041108"/>
    </g>
    <g clip-path="url(#p2b514e3a49)">
     <use style="fill:#2f79b5;stroke:#ffffff;" x="371.490246" xlink:href="#C0_0_205439b6a3" y="625.837343"/>
    </g>
    <g clip-path="url(#p2b514e3a49)">
     <use style="fill:#2f79b5;stroke:#ffffff;" x="576.926736" xlink:href="#C0_0_205439b6a3" y="689.506246"/>
    </g>
    <g clip-path="url(#p2b514e3a49)">
     <use style="fill:#2f79b5;stroke:#ffffff;" x="483.75959" xlink:href="#C0_0_205439b6a3" y="667.656765"/>
    </g>
    <g clip-path="url(#p2b514e3a49)">
     <use style="fill:#2f79b5;stroke:#ffffff;" x="501.71106" xlink:href="#C0_0_205439b6a3" y="753.714644"/>
    </g>
    <g clip-path="url(#p2b514e3a49)">
     <use style="fill:#2f79b5;stroke:#ffffff;" x="321.223404" xlink:href="#C0_0_205439b6a3" y="708.896773"/>
    </g>
    <g clip-path="url(#p2b514e3a49)">
     <use style="fill:#2f79b5;stroke:#ffffff;" x="513.791816" xlink:href="#C0_0_205439b6a3" y="709.205884"/>
    </g>
    <g clip-path="url(#p2b514e3a49)">
     <use style="fill:#2f79b5;stroke:#ffffff;" x="401.111746" xlink:href="#C0_0_205439b6a3" y="753.854601"/>
    </g>
    <g clip-path="url(#p2b514e3a49)">
     <use style="fill:#2f79b5;stroke:#ffffff;" x="566.364295" xlink:href="#C0_0_205439b6a3" y="699.059079"/>
    </g>
    <g clip-path="url(#p2b514e3a49)">
     <use style="fill:#2f79b5;stroke:#ffffff;" x="360.008987" xlink:href="#C0_0_205439b6a3" y="866.733038"/>
    </g>
    <g clip-path="url(#p2b514e3a49)">
     <use style="fill:#2f79b5;stroke:#ffffff;" x="516.549636" xlink:href="#C0_0_205439b6a3" y="626.761769"/>
    </g>
    <g clip-path="url(#p2b514e3a49)">
     <use style="fill:#2f79b5;stroke:#ffffff;" x="331.553472" xlink:href="#C0_0_205439b6a3" y="647.32747"/>
    </g>
    <g clip-path="url(#p2b514e3a49)">
     <use style="fill:#2f79b5;stroke:#ffffff;" x="231.405319" xlink:href="#C0_0_205439b6a3" y="837.661039"/>
    </g>
    <g clip-path="url(#p2b514e3a49)">
     <use style="fill:#2f79b5;stroke:#ffffff;" x="445.782159" xlink:href="#C0_0_205439b6a3" y="758.656653"/>
    </g>
    <g clip-path="url(#p2b514e3a49)">
     <use style="fill:#2f79b5;stroke:#ffffff;" x="361.824877" xlink:href="#C0_0_205439b6a3" y="819.477407"/>
    </g>
    <g clip-path="url(#p2b514e3a49)">
     <use style="fill:#2f79b5;stroke:#ffffff;" x="406.231591" xlink:href="#C0_0_205439b6a3" y="732.363173"/>
    </g>
    <g clip-path="url(#p2b514e3a49)">
     <use style="fill:#2f79b5;stroke:#ffffff;" x="462.495529" xlink:href="#C0_0_205439b6a3" y="624.12826"/>
    </g>
    <g clip-path="url(#p2b514e3a49)">
     <use style="fill:#c13639;stroke:#ffffff;" x="434.960857" xlink:href="#C0_0_205439b6a3" y="449.414953"/>
    </g>
    <g clip-path="url(#p2b514e3a49)">
     <use style="fill:#c13639;stroke:#ffffff;" x="403.473407" xlink:href="#C0_0_205439b6a3" y="511.660278"/>
    </g>
    <g clip-path="url(#p2b514e3a49)">
     <use style="fill:#c13639;stroke:#ffffff;" x="370.522806" xlink:href="#C0_0_205439b6a3" y="373.330888"/>
    </g>
    <g clip-path="url(#p2b514e3a49)">
     <use style="fill:#c13639;stroke:#ffffff;" x="402.55796" xlink:href="#C0_0_205439b6a3" y="287.705028"/>
    </g>
    <g clip-path="url(#p2b514e3a49)">
     <use style="fill:#c13639;stroke:#ffffff;" x="369.522686" xlink:href="#C0_0_205439b6a3" y="437.685641"/>
    </g>
    <g clip-path="url(#p2b514e3a49)">
     <use style="fill:#c13639;stroke:#ffffff;" x="305.888948" xlink:href="#C0_0_205439b6a3" y="430.676257"/>
    </g>
    <g clip-path="url(#p2b514e3a49)">
     <use style="fill:#c13639;stroke:#ffffff;" x="574.738087" xlink:href="#C0_0_205439b6a3" y="490.415638"/>
    </g>
    <g clip-path="url(#p2b514e3a49)">
     <use style="fill:#c13639;stroke:#ffffff;" x="408.905666" xlink:href="#C0_0_205439b6a3" y="474.111993"/>
    </g>
    <g clip-path="url(#p2b514e3a49)">
     <use style="fill:#c13639;stroke:#ffffff;" x="274.322908" xlink:href="#C0_0_205439b6a3" y="414.373344"/>
    </g>
    <g clip-path="url(#p2b514e3a49)">
     <use style="fill:#c13639;stroke:#ffffff;" x="388.789072" xlink:href="#C0_0_205439b6a3" y="423.550026"/>
    </g>
    <g clip-path="url(#p2b514e3a49)">
     <use style="fill:#c13639;stroke:#ffffff;" x="621.56092" xlink:href="#C0_0_205439b6a3" y="349.583358"/>
    </g>
    <g clip-path="url(#p2b514e3a49)">
     <use style="fill:#c13639;stroke:#ffffff;" x="359.328972" xlink:href="#C0_0_205439b6a3" y="424.106723"/>
    </g>
    <g clip-path="url(#p2b514e3a49)">
     <use style="fill:#c13639;stroke:#ffffff;" x="427.709117" xlink:href="#C0_0_205439b6a3" y="431.562743"/>
    </g>
    <g clip-path="url(#p2b514e3a49)">
     <use style="fill:#c13639;stroke:#ffffff;" x="410.663092" xlink:href="#C0_0_205439b6a3" y="166.663636"/>
    </g>
    <g clip-path="url(#p2b514e3a49)">
     <use style="fill:#c13639;stroke:#ffffff;" x="525.261879" xlink:href="#C0_0_205439b6a3" y="344.85845"/>
    </g>
    <g clip-path="url(#p2b514e3a49)">
     <use style="fill:#c13639;stroke:#ffffff;" x="382.805548" xlink:href="#C0_0_205439b6a3" y="389.968273"/>
    </g>
    <g clip-path="url(#p2b514e3a49)">
     <use style="fill:#c13639;stroke:#ffffff;" x="446.809158" xlink:href="#C0_0_205439b6a3" y="331.718281"/>
    </g>
    <g clip-path="url(#p2b514e3a49)">
     <use style="fill:#c13639;stroke:#ffffff;" x="447.307792" xlink:href="#C0_0_205439b6a3" y="328.064662"/>
    </g>
    <g clip-path="url(#p2b514e3a49)">
     <use style="fill:#c13639;stroke:#ffffff;" x="600.068265" xlink:href="#C0_0_205439b6a3" y="405.796369"/>
    </g>
    <g clip-path="url(#p2b514e3a49)">
     <use style="fill:#c13639;stroke:#ffffff;" x="307.224872" xlink:href="#C0_0_205439b6a3" y="361.112855"/>
    </g>
    <g clip-path="url(#p2b514e3a49)">
     <use style="fill:#c13639;stroke:#ffffff;" x="340.90659" xlink:href="#C0_0_205439b6a3" y="394.153431"/>
    </g>
    <g clip-path="url(#p2b514e3a49)">
     <use style="fill:#c13639;stroke:#ffffff;" x="441.865788" xlink:href="#C0_0_205439b6a3" y="394.311508"/>
    </g>
    <g clip-path="url(#p2b514e3a49)">
     <use style="fill:#c13639;stroke:#ffffff;" x="413.350615" xlink:href="#C0_0_205439b6a3" y="471.147109"/>
    </g>
    <g clip-path="url(#p2b514e3a49)">
     <use style="fill:#c13639;stroke:#ffffff;" x="537.518475" xlink:href="#C0_0_205439b6a3" y="245.946435"/>
    </g>
    <g clip-path="url(#p2b514e3a49)">
     <use style="fill:#c13639;stroke:#ffffff;" x="483.291753" xlink:href="#C0_0_205439b6a3" y="314.644295"/>
    </g>
    <g clip-path="url(#p2b514e3a49)">
     <use style="fill:#c13639;stroke:#ffffff;" x="283.598547" xlink:href="#C0_0_205439b6a3" y="363.157744"/>
    </g>
    <g clip-path="url(#p2b514e3a49)">
     <use style="fill:#c13639;stroke:#ffffff;" x="460.549075" xlink:href="#C0_0_205439b6a3" y="247.08231"/>
    </g>
    <g clip-path="url(#p2b514e3a49)">
     <use style="fill:#c13639;stroke:#ffffff;" x="301.724263" xlink:href="#C0_0_205439b6a3" y="306.064035"/>
    </g>
    <g clip-path="url(#p2b514e3a49)">
     <use style="fill:#c13639;stroke:#ffffff;" x="521.881319" xlink:href="#C0_0_205439b6a3" y="384.222054"/>
    </g>
    <g clip-path="url(#p2b514e3a49)">
     <use style="fill:#c13639;stroke:#ffffff;" x="362.24636" xlink:href="#C0_0_205439b6a3" y="459.364239"/>
    </g>
    <g clip-path="url(#p2b514e3a49)">
     <use style="fill:#c13639;stroke:#ffffff;" x="480.778835" xlink:href="#C0_0_205439b6a3" y="356.831472"/>
    </g>
    <g clip-path="url(#p2b514e3a49)">
     <use style="fill:#c13639;stroke:#ffffff;" x="395.286943" xlink:href="#C0_0_205439b6a3" y="462.642653"/>
    </g>
    <g clip-path="url(#p2b514e3a49)">
     <use style="fill:#c13639;stroke:#ffffff;" x="257.393876" xlink:href="#C0_0_205439b6a3" y="417.341394"/>
    </g>
    <g clip-path="url(#p2b514e3a49)">
     <use style="fill:#c13639;stroke:#ffffff;" x="304.397223" xlink:href="#C0_0_205439b6a3" y="436.285156"/>
    </g>
    <g clip-path="url(#p2b514e3a49)">
     <use style="fill:#c13639;stroke:#ffffff;" x="554.827228" xlink:href="#C0_0_205439b6a3" y="384.777065"/>
    </g>
    <g clip-path="url(#p2b514e3a49)">
     <use style="fill:#c13639;stroke:#ffffff;" x="380.841773" xlink:href="#C0_0_205439b6a3" y="423.934936"/>
    </g>
    <g clip-path="url(#p2b514e3a49)">
     <use style="fill:#c13639;stroke:#ffffff;" x="372.716322" xlink:href="#C0_0_205439b6a3" y="562.03089"/>
    </g>
    <g clip-path="url(#p2b514e3a49)">
     <use style="fill:#c13639;stroke:#ffffff;" x="424.810797" xlink:href="#C0_0_205439b6a3" y="530.71681"/>
    </g>
    <g clip-path="url(#p2b514e3a49)">
     <use style="fill:#c13639;stroke:#ffffff;" x="330.744636" xlink:href="#C0_0_205439b6a3" y="445.982663"/>
    </g>
    <g clip-path="url(#p2b514e3a49)">
     <use style="fill:#c13639;stroke:#ffffff;" x="465.879511" xlink:href="#C0_0_205439b6a3" y="329.88034"/>
    </g>
    <g clip-path="url(#p2b514e3a49)">
     <use style="fill:#c13639;stroke:#ffffff;" x="493.591821" xlink:href="#C0_0_205439b6a3" y="396.911839"/>
    </g>
    <g clip-path="url(#p2b514e3a49)">
     <use style="fill:#c13639;stroke:#ffffff;" x="318.540039" xlink:href="#C0_0_205439b6a3" y="524.406387"/>
    </g>
    <g clip-path="url(#p2b514e3a49)">
     <use style="fill:#c13639;stroke:#ffffff;" x="604.984508" xlink:href="#C0_0_205439b6a3" y="234.714225"/>
    </g>
    <g clip-path="url(#p2b514e3a49)">
     <use style="fill:#c13639;stroke:#ffffff;" x="539.435242" xlink:href="#C0_0_205439b6a3" y="313.758824"/>
    </g>
    <g clip-path="url(#p2b514e3a49)">
     <use style="fill:#c13639;stroke:#ffffff;" x="269.445254" xlink:href="#C0_0_205439b6a3" y="434.363287"/>
    </g>
    <g clip-path="url(#p2b514e3a49)">
     <use style="fill:#c13639;stroke:#ffffff;" x="471.489853" xlink:href="#C0_0_205439b6a3" y="400.94191"/>
    </g>
    <g clip-path="url(#p2b514e3a49)">
     <use style="fill:#c13639;stroke:#ffffff;" x="353.28611" xlink:href="#C0_0_205439b6a3" y="392.88316"/>
    </g>
    <g clip-path="url(#p2b514e3a49)">
     <use style="fill:#c13639;stroke:#ffffff;" x="314.652944" xlink:href="#C0_0_205439b6a3" y="501.416766"/>
    </g>
    <g clip-path="url(#p2b514e3a49)">
     <use style="fill:#c13639;stroke:#ffffff;" x="230.727273" xlink:href="#C0_0_205439b6a3" y="452.927858"/>
    </g>
    <g clip-path="url(#p2b514e3a49)">
     <use style="fill:#c13639;stroke:#ffffff;" x="519.411173" xlink:href="#C0_0_205439b6a3" y="385.23252"/>
    </g>
    <g clip-path="url(#p2b514e3a49)">
     <use style="fill:#c13639;stroke:#ffffff;" x="908.861665" xlink:href="#C0_0_205439b6a3" y="673.330076"/>
    </g>
    <g clip-path="url(#p2b514e3a49)">
     <use style="fill:#c13639;stroke:#ffffff;" x="930.054162" xlink:href="#C0_0_205439b6a3" y="736.242204"/>
    </g>
    <g clip-path="url(#p2b514e3a49)">
     <use style="fill:#c13639;stroke:#ffffff;" x="1122.765584" xlink:href="#C0_0_205439b6a3" y="587.042517"/>
    </g>
    <g clip-path="url(#p2b514e3a49)">
     <use style="fill:#c13639;stroke:#ffffff;" x="1017.094609" xlink:href="#C0_0_205439b6a3" y="711.738361"/>
    </g>
    <g clip-path="url(#p2b514e3a49)">
     <use style="fill:#c13639;stroke:#ffffff;" x="749.372526" xlink:href="#C0_0_205439b6a3" y="715.361312"/>
    </g>
    <g clip-path="url(#p2b514e3a49)">
     <use style="fill:#c13639;stroke:#ffffff;" x="865.456737" xlink:href="#C0_0_205439b6a3" y="570.733144"/>
    </g>
    <g clip-path="url(#p2b514e3a49)">
     <use style="fill:#c13639;stroke:#ffffff;" x="1044.970524" xlink:href="#C0_0_205439b6a3" y="684.937093"/>
    </g>
    <g clip-path="url(#p2b514e3a49)">
     <use style="fill:#c13639;stroke:#ffffff;" x="999.368594" xlink:href="#C0_0_205439b6a3" y="773.990957"/>
    </g>
    <g clip-path="url(#p2b514e3a49)">
     <use style="fill:#c13639;stroke:#ffffff;" x="918.056067" xlink:href="#C0_0_205439b6a3" y="778.838659"/>
    </g>
    <g clip-path="url(#p2b514e3a49)">
     <use style="fill:#c13639;stroke:#ffffff;" x="922.531349" xlink:href="#C0_0_205439b6a3" y="890.94877"/>
    </g>
    <g clip-path="url(#p2b514e3a49)">
     <use style="fill:#c13639;stroke:#ffffff;" x="769.89656" xlink:href="#C0_0_205439b6a3" y="782.809744"/>
    </g>
    <g clip-path="url(#p2b514e3a49)">
     <use style="fill:#c13639;stroke:#ffffff;" x="1008.138051" xlink:href="#C0_0_205439b6a3" y="756.533411"/>
    </g>
    <g clip-path="url(#p2b514e3a49)">
     <use style="fill:#c13639;stroke:#ffffff;" x="875.890442" xlink:href="#C0_0_205439b6a3" y="696.231403"/>
    </g>
    <g clip-path="url(#p2b514e3a49)">
     <use style="fill:#c13639;stroke:#ffffff;" x="979.586568" xlink:href="#C0_0_205439b6a3" y="740.712491"/>
    </g>
    <g clip-path="url(#p2b514e3a49)">
     <use style="fill:#c13639;stroke:#ffffff;" x="857.160549" xlink:href="#C0_0_205439b6a3" y="714.709939"/>
    </g>
    <g clip-path="url(#p2b514e3a49)">
     <use style="fill:#c13639;stroke:#ffffff;" x="899.560814" xlink:href="#C0_0_205439b6a3" y="802.316024"/>
    </g>
    <g clip-path="url(#p2b514e3a49)">
     <use style="fill:#c13639;stroke:#ffffff;" x="966.408745" xlink:href="#C0_0_205439b6a3" y="735.841252"/>
    </g>
    <g clip-path="url(#p2b514e3a49)">
     <use style="fill:#c13639;stroke:#ffffff;" x="887.054059" xlink:href="#C0_0_205439b6a3" y="793.097811"/>
    </g>
    <g clip-path="url(#p2b514e3a49)">
     <use style="fill:#c13639;stroke:#ffffff;" x="894.362664" xlink:href="#C0_0_205439b6a3" y="907.936364"/>
    </g>
    <g clip-path="url(#p2b514e3a49)">
     <use style="fill:#c13639;stroke:#ffffff;" x="887.359846" xlink:href="#C0_0_205439b6a3" y="701.376484"/>
    </g>
    <g clip-path="url(#p2b514e3a49)">
     <use style="fill:#c13639;stroke:#ffffff;" x="1013.589171" xlink:href="#C0_0_205439b6a3" y="798.293249"/>
    </g>
    <g clip-path="url(#p2b514e3a49)">
     <use style="fill:#c13639;stroke:#ffffff;" x="809.394037" xlink:href="#C0_0_205439b6a3" y="805.848025"/>
    </g>
    <g clip-path="url(#p2b514e3a49)">
     <use style="fill:#c13639;stroke:#ffffff;" x="813.592254" xlink:href="#C0_0_205439b6a3" y="805.51574"/>
    </g>
    <g clip-path="url(#p2b514e3a49)">
     <use style="fill:#c13639;stroke:#ffffff;" x="925.637244" xlink:href="#C0_0_205439b6a3" y="767.645981"/>
    </g>
    <g clip-path="url(#p2b514e3a49)">
     <use style="fill:#c13639;stroke:#ffffff;" x="939.605898" xlink:href="#C0_0_205439b6a3" y="799.817868"/>
    </g>
    <g clip-path="url(#p2b514e3a49)">
     <use style="fill:#c13639;stroke:#ffffff;" x="1142.328039" xlink:href="#C0_0_205439b6a3" y="712.183934"/>
    </g>
    <g clip-path="url(#p2b514e3a49)">
     <use style="fill:#c13639;stroke:#ffffff;" x="913.28318" xlink:href="#C0_0_205439b6a3" y="777.29252"/>
    </g>
    <g clip-path="url(#p2b514e3a49)">
     <use style="fill:#c13639;stroke:#ffffff;" x="1076.255814" xlink:href="#C0_0_205439b6a3" y="720.112427"/>
    </g>
    <g clip-path="url(#p2b514e3a49)">
     <use style="fill:#c13639;stroke:#ffffff;" x="1084.307852" xlink:href="#C0_0_205439b6a3" y="664.801928"/>
    </g>
    <g clip-path="url(#p2b514e3a49)">
     <use style="fill:#c13639;stroke:#ffffff;" x="1039.768756" xlink:href="#C0_0_205439b6a3" y="782.909315"/>
    </g>
    <g clip-path="url(#p2b514e3a49)">
     <use style="fill:#c13639;stroke:#ffffff;" x="914.679707" xlink:href="#C0_0_205439b6a3" y="774.52608"/>
    </g>
    <g clip-path="url(#p2b514e3a49)">
     <use style="fill:#c13639;stroke:#ffffff;" x="1100.781016" xlink:href="#C0_0_205439b6a3" y="792.110399"/>
    </g>
    <g clip-path="url(#p2b514e3a49)">
     <use style="fill:#c13639;stroke:#ffffff;" x="974.776833" xlink:href="#C0_0_205439b6a3" y="766.348593"/>
    </g>
    <g clip-path="url(#p2b514e3a49)">
     <use style="fill:#c13639;stroke:#ffffff;" x="959.829462" xlink:href="#C0_0_205439b6a3" y="620.473456"/>
    </g>
    <g clip-path="url(#p2b514e3a49)">
     <use style="fill:#c13639;stroke:#ffffff;" x="883.54819" xlink:href="#C0_0_205439b6a3" y="793.64013"/>
    </g>
    <g clip-path="url(#p2b514e3a49)">
     <use style="fill:#c13639;stroke:#ffffff;" x="1051.336587" xlink:href="#C0_0_205439b6a3" y="740.141605"/>
    </g>
    <g clip-path="url(#p2b514e3a49)">
     <use style="fill:#c13639;stroke:#ffffff;" x="906.819837" xlink:href="#C0_0_205439b6a3" y="692.971598"/>
    </g>
    <g clip-path="url(#p2b514e3a49)">
     <use style="fill:#c13639;stroke:#ffffff;" x="1086.79699" xlink:href="#C0_0_205439b6a3" y="653.046835"/>
    </g>
    <g clip-path="url(#p2b514e3a49)">
     <use style="fill:#c13639;stroke:#ffffff;" x="1039.622123" xlink:href="#C0_0_205439b6a3" y="652.051264"/>
    </g>
    <g clip-path="url(#p2b514e3a49)">
     <use style="fill:#c13639;stroke:#ffffff;" x="890.273302" xlink:href="#C0_0_205439b6a3" y="808.154688"/>
    </g>
    <g clip-path="url(#p2b514e3a49)">
     <use style="fill:#c13639;stroke:#ffffff;" x="834.516422" xlink:href="#C0_0_205439b6a3" y="628.728298"/>
    </g>
    <g clip-path="url(#p2b514e3a49)">
     <use style="fill:#c13639;stroke:#ffffff;" x="1026.950139" xlink:href="#C0_0_205439b6a3" y="744.559616"/>
    </g>
    <g clip-path="url(#p2b514e3a49)">
     <use style="fill:#c13639;stroke:#ffffff;" x="889.240784" xlink:href="#C0_0_205439b6a3" y="679.982419"/>
    </g>
    <g clip-path="url(#p2b514e3a49)">
     <use style="fill:#c13639;stroke:#ffffff;" x="828.383604" xlink:href="#C0_0_205439b6a3" y="644.399141"/>
    </g>
    <g clip-path="url(#p2b514e3a49)">
     <use style="fill:#c13639;stroke:#ffffff;" x="918.194585" xlink:href="#C0_0_205439b6a3" y="708.925236"/>
    </g>
    <g clip-path="url(#p2b514e3a49)">
     <use style="fill:#c13639;stroke:#ffffff;" x="793.304667" xlink:href="#C0_0_205439b6a3" y="762.380546"/>
    </g>
    <g clip-path="url(#p2b514e3a49)">
     <use style="fill:#c13639;stroke:#ffffff;" x="1074.352618" xlink:href="#C0_0_205439b6a3" y="764.97834"/>
    </g>
    <g clip-path="url(#p2b514e3a49)">
     <use style="fill:#c13639;stroke:#ffffff;" x="1028.420093" xlink:href="#C0_0_205439b6a3" y="687.154601"/>
    </g>
    <g clip-path="url(#p2b514e3a49)">
     <use style="fill:#c13639;stroke:#ffffff;" x="988.201086" xlink:href="#C0_0_205439b6a3" y="737.456544"/>
    </g>
    <g clip-path="url(#p2b514e3a49)">
     <use style="fill:#c13639;stroke:#ffffff;" x="960.683838" xlink:href="#C0_0_205439b6a3" y="761.786734"/>
    </g>
    <g clip-path="url(#p2b514e3a49)">
     <use style="fill:#2f79b5;stroke:#ffffff;" x="896.253827" xlink:href="#C0_0_205439b6a3" y="260.476671"/>
    </g>
    <g clip-path="url(#p2b514e3a49)">
     <use style="fill:#2f79b5;stroke:#ffffff;" x="918.333792" xlink:href="#C0_0_205439b6a3" y="269.830215"/>
    </g>
    <g clip-path="url(#p2b514e3a49)">
     <use style="fill:#2f79b5;stroke:#ffffff;" x="820.394161" xlink:href="#C0_0_205439b6a3" y="353.283929"/>
    </g>
    <g clip-path="url(#p2b514e3a49)">
     <use style="fill:#2f79b5;stroke:#ffffff;" x="933.998768" xlink:href="#C0_0_205439b6a3" y="387.659302"/>
    </g>
    <g clip-path="url(#p2b514e3a49)">
     <use style="fill:#2f79b5;stroke:#ffffff;" x="916.839476" xlink:href="#C0_0_205439b6a3" y="431.615349"/>
    </g>
    <g clip-path="url(#p2b514e3a49)">
     <use style="fill:#2f79b5;stroke:#ffffff;" x="929.155922" xlink:href="#C0_0_205439b6a3" y="356.72171"/>
    </g>
    <g clip-path="url(#p2b514e3a49)">
     <use style="fill:#2f79b5;stroke:#ffffff;" x="883.74749" xlink:href="#C0_0_205439b6a3" y="361.453976"/>
    </g>
    <g clip-path="url(#p2b514e3a49)">
     <use style="fill:#2f79b5;stroke:#ffffff;" x="1008.500775" xlink:href="#C0_0_205439b6a3" y="328.138331"/>
    </g>
    <g clip-path="url(#p2b514e3a49)">
     <use style="fill:#2f79b5;stroke:#ffffff;" x="961.453828" xlink:href="#C0_0_205439b6a3" y="491.758483"/>
    </g>
    <g clip-path="url(#p2b514e3a49)">
     <use style="fill:#2f79b5;stroke:#ffffff;" x="913.306583" xlink:href="#C0_0_205439b6a3" y="350.721194"/>
    </g>
    <g clip-path="url(#p2b514e3a49)">
     <use style="fill:#2f79b5;stroke:#ffffff;" x="876.658158" xlink:href="#C0_0_205439b6a3" y="360.058874"/>
    </g>
    <g clip-path="url(#p2b514e3a49)">
     <use style="fill:#2f79b5;stroke:#ffffff;" x="1023.714827" xlink:href="#C0_0_205439b6a3" y="460.001966"/>
    </g>
    <g clip-path="url(#p2b514e3a49)">
     <use style="fill:#2f79b5;stroke:#ffffff;" x="959.182171" xlink:href="#C0_0_205439b6a3" y="427.04576"/>
    </g>
    <g clip-path="url(#p2b514e3a49)">
     <use style="fill:#2f79b5;stroke:#ffffff;" x="908.862529" xlink:href="#C0_0_205439b6a3" y="422.29724"/>
    </g>
    <g clip-path="url(#p2b514e3a49)">
     <use style="fill:#2f79b5;stroke:#ffffff;" x="935.646715" xlink:href="#C0_0_205439b6a3" y="281.481958"/>
    </g>
    <g clip-path="url(#p2b514e3a49)">
     <use style="fill:#2f79b5;stroke:#ffffff;" x="969.302271" xlink:href="#C0_0_205439b6a3" y="372.262302"/>
    </g>
    <g clip-path="url(#p2b514e3a49)">
     <use style="fill:#2f79b5;stroke:#ffffff;" x="883.34674" xlink:href="#C0_0_205439b6a3" y="466.236308"/>
    </g>
    <g clip-path="url(#p2b514e3a49)">
     <use style="fill:#2f79b5;stroke:#ffffff;" x="847.927096" xlink:href="#C0_0_205439b6a3" y="360.289609"/>
    </g>
    <g clip-path="url(#p2b514e3a49)">
     <use style="fill:#2f79b5;stroke:#ffffff;" x="801.301489" xlink:href="#C0_0_205439b6a3" y="447.617885"/>
    </g>
    <g clip-path="url(#p2b514e3a49)">
     <use style="fill:#2f79b5;stroke:#ffffff;" x="1000.762907" xlink:href="#C0_0_205439b6a3" y="448.858528"/>
    </g>
    <g clip-path="url(#p2b514e3a49)">
     <use style="fill:#2f79b5;stroke:#ffffff;" x="951.217653" xlink:href="#C0_0_205439b6a3" y="283.323104"/>
    </g>
    <g clip-path="url(#p2b514e3a49)">
     <use style="fill:#2f79b5;stroke:#ffffff;" x="958.781244" xlink:href="#C0_0_205439b6a3" y="527.195942"/>
    </g>
    <g clip-path="url(#p2b514e3a49)">
     <use style="fill:#2f79b5;stroke:#ffffff;" x="870.497794" xlink:href="#C0_0_205439b6a3" y="484.32441"/>
    </g>
    <g clip-path="url(#p2b514e3a49)">
     <use style="fill:#2f79b5;stroke:#ffffff;" x="950.297045" xlink:href="#C0_0_205439b6a3" y="340.763154"/>
    </g>
    <g clip-path="url(#p2b514e3a49)">
     <use style="fill:#2f79b5;stroke:#ffffff;" x="705.542589" xlink:href="#C0_0_205439b6a3" y="373.858329"/>
    </g>
    <g clip-path="url(#p2b514e3a49)">
     <use style="fill:#2f79b5;stroke:#ffffff;" x="761.209622" xlink:href="#C0_0_205439b6a3" y="405.479812"/>
    </g>
    <g clip-path="url(#p2b514e3a49)">
     <use style="fill:#2f79b5;stroke:#ffffff;" x="1005.164354" xlink:href="#C0_0_205439b6a3" y="479.851123"/>
    </g>
    <g clip-path="url(#p2b514e3a49)">
     <use style="fill:#2f79b5;stroke:#ffffff;" x="908.779244" xlink:href="#C0_0_205439b6a3" y="448.161854"/>
    </g>
    <g clip-path="url(#p2b514e3a49)">
     <use style="fill:#2f79b5;stroke:#ffffff;" x="856.820222" xlink:href="#C0_0_205439b6a3" y="419.880352"/>
    </g>
    <g clip-path="url(#p2b514e3a49)">
     <use style="fill:#2f79b5;stroke:#ffffff;" x="827.318229" xlink:href="#C0_0_205439b6a3" y="424.300067"/>
    </g>
    <g clip-path="url(#p2b514e3a49)">
     <use style="fill:#2f79b5;stroke:#ffffff;" x="1195.617904" xlink:href="#C0_0_205439b6a3" y="430.180325"/>
    </g>
    <g clip-path="url(#p2b514e3a49)">
     <use style="fill:#2f79b5;stroke:#ffffff;" x="828.390044" xlink:href="#C0_0_205439b6a3" y="340.200461"/>
    </g>
    <g clip-path="url(#p2b514e3a49)">
     <use style="fill:#2f79b5;stroke:#ffffff;" x="966.673723" xlink:href="#C0_0_205439b6a3" y="423.497464"/>
    </g>
    <g clip-path="url(#p2b514e3a49)">
     <use style="fill:#2f79b5;stroke:#ffffff;" x="1049.530998" xlink:href="#C0_0_205439b6a3" y="421.60742"/>
    </g>
    <g clip-path="url(#p2b514e3a49)">
     <use style="fill:#2f79b5;stroke:#ffffff;" x="1010.932027" xlink:href="#C0_0_205439b6a3" y="365.658571"/>
    </g>
    <g clip-path="url(#p2b514e3a49)">
     <use style="fill:#2f79b5;stroke:#ffffff;" x="829.238696" xlink:href="#C0_0_205439b6a3" y="513.11013"/>
    </g>
    <g clip-path="url(#p2b514e3a49)">
     <use style="fill:#2f79b5;stroke:#ffffff;" x="945.134687" xlink:href="#C0_0_205439b6a3" y="507.303687"/>
    </g>
    <g clip-path="url(#p2b514e3a49)">
     <use style="fill:#2f79b5;stroke:#ffffff;" x="744.909766" xlink:href="#C0_0_205439b6a3" y="475.745473"/>
    </g>
    <g clip-path="url(#p2b514e3a49)">
     <use style="fill:#2f79b5;stroke:#ffffff;" x="1124.558258" xlink:href="#C0_0_205439b6a3" y="430.369717"/>
    </g>
    <g clip-path="url(#p2b514e3a49)">
     <use style="fill:#2f79b5;stroke:#ffffff;" x="913.718248" xlink:href="#C0_0_205439b6a3" y="437.103603"/>
    </g>
    <g clip-path="url(#p2b514e3a49)">
     <use style="fill:#2f79b5;stroke:#ffffff;" x="655.694146" xlink:href="#C0_0_205439b6a3" y="314.251003"/>
    </g>
    <g clip-path="url(#p2b514e3a49)">
     <use style="fill:#2f79b5;stroke:#ffffff;" x="1003.674185" xlink:href="#C0_0_205439b6a3" y="425.709467"/>
    </g>
    <g clip-path="url(#p2b514e3a49)">
     <use style="fill:#2f79b5;stroke:#ffffff;" x="801.548612" xlink:href="#C0_0_205439b6a3" y="355.934889"/>
    </g>
    <g clip-path="url(#p2b514e3a49)">
     <use style="fill:#2f79b5;stroke:#ffffff;" x="838.126523" xlink:href="#C0_0_205439b6a3" y="351.352037"/>
    </g>
    <g clip-path="url(#p2b514e3a49)">
     <use style="fill:#2f79b5;stroke:#ffffff;" x="1008.346596" xlink:href="#C0_0_205439b6a3" y="401.618449"/>
    </g>
    <g clip-path="url(#p2b514e3a49)">
     <use style="fill:#2f79b5;stroke:#ffffff;" x="942.420528" xlink:href="#C0_0_205439b6a3" y="340.043799"/>
    </g>
    <g clip-path="url(#p2b514e3a49)">
     <use style="fill:#2f79b5;stroke:#ffffff;" x="1245.272727" xlink:href="#C0_0_205439b6a3" y="401.453359"/>
    </g>
    <g clip-path="url(#p2b514e3a49)">
     <use style="fill:#2f79b5;stroke:#ffffff;" x="886.109285" xlink:href="#C0_0_205439b6a3" y="372.50159"/>
    </g>
    <g clip-path="url(#p2b514e3a49)">
     <use style="fill:#2f79b5;stroke:#ffffff;" x="1015.655702" xlink:href="#C0_0_205439b6a3" y="455.432293"/>
    </g>
    <g clip-path="url(#p2b514e3a49)">
     <use style="fill:#2f79b5;stroke:#ffffff;" x="965.583691" xlink:href="#C0_0_205439b6a3" y="429.179051"/>
    </g>
   </g>
   <g id="patch_3">
    <path d="M 180 945 
L 180 129.6 
" style="fill:none;stroke:#ffffff;stroke-linecap:square;stroke-linejoin:miter;stroke-width:0.8;"/>
   </g>
   <g id="patch_4">
    <path d="M 1296 945 
L 1296 129.6 
" style="fill:none;stroke:#ffffff;stroke-linecap:square;stroke-linejoin:miter;stroke-width:0.8;"/>
   </g>
   <g id="patch_5">
    <path d="M 180 945 
L 1296 945 
" style="fill:none;stroke:#ffffff;stroke-linecap:square;stroke-linejoin:miter;stroke-width:0.8;"/>
   </g>
   <g id="patch_6">
    <path d="M 180 129.6 
L 1296 129.6 
" style="fill:none;stroke:#ffffff;stroke-linecap:square;stroke-linejoin:miter;stroke-width:0.8;"/>
   </g>
   <g id="text_13">
    <!-- A XNOR B -->
    <g style="fill:#262626;" transform="translate(695.484844 123.6)scale(0.18 -0.18)">
     <defs>
      <path d="M 28 0 
L 1800 2388 
L 238 4581 
L 959 4581 
L 1791 3406 
Q 2050 3041 2159 2844 
Q 2313 3094 2522 3366 
L 3444 4581 
L 4103 4581 
L 2494 2422 
L 4228 0 
L 3478 0 
L 2325 1634 
Q 2228 1775 2125 1941 
Q 1972 1691 1906 1597 
L 756 0 
L 28 0 
z
" id="ArialMT-58" transform="scale(0.015625)"/>
      <path d="M 488 0 
L 488 4581 
L 1109 4581 
L 3516 984 
L 3516 4581 
L 4097 4581 
L 4097 0 
L 3475 0 
L 1069 3600 
L 1069 0 
L 488 0 
z
" id="ArialMT-4e" transform="scale(0.015625)"/>
      <path d="M 309 2231 
Q 309 3372 921 4017 
Q 1534 4663 2503 4663 
Q 3138 4663 3647 4359 
Q 4156 4056 4423 3514 
Q 4691 2972 4691 2284 
Q 4691 1588 4409 1038 
Q 4128 488 3612 205 
Q 3097 -78 2500 -78 
Q 1853 -78 1343 234 
Q 834 547 571 1087 
Q 309 1628 309 2231 
z
M 934 2222 
Q 934 1394 1379 917 
Q 1825 441 2497 441 
Q 3181 441 3623 922 
Q 4066 1403 4066 2288 
Q 4066 2847 3877 3264 
Q 3688 3681 3323 3911 
Q 2959 4141 2506 4141 
Q 1863 4141 1398 3698 
Q 934 3256 934 2222 
z
" id="ArialMT-4f" transform="scale(0.015625)"/>
      <path d="M 503 0 
L 503 4581 
L 2534 4581 
Q 3147 4581 3465 4457 
Q 3784 4334 3975 4021 
Q 4166 3709 4166 3331 
Q 4166 2844 3850 2509 
Q 3534 2175 2875 2084 
Q 3116 1969 3241 1856 
Q 3506 1613 3744 1247 
L 4541 0 
L 3778 0 
L 3172 953 
Q 2906 1366 2734 1584 
Q 2563 1803 2427 1890 
Q 2291 1978 2150 2013 
Q 2047 2034 1813 2034 
L 1109 2034 
L 1109 0 
L 503 0 
z
M 1109 2559 
L 2413 2559 
Q 2828 2559 3062 2645 
Q 3297 2731 3419 2920 
Q 3541 3109 3541 3331 
Q 3541 3656 3305 3865 
Q 3069 4075 2559 4075 
L 1109 4075 
L 1109 2559 
z
" id="ArialMT-52" transform="scale(0.015625)"/>
     </defs>
     <use xlink:href="#ArialMT-41"/>
     <use x="61.199219" xlink:href="#ArialMT-20"/>
     <use x="88.982422" xlink:href="#ArialMT-58"/>
     <use x="155.681641" xlink:href="#ArialMT-4e"/>
     <use x="227.898438" xlink:href="#ArialMT-4f"/>
     <use x="305.681641" xlink:href="#ArialMT-52"/>
     <use x="377.898438" xlink:href="#ArialMT-20"/>
     <use x="405.681641" xlink:href="#ArialMT-42"/>
    </g>
   </g>
  </g>
 </g>
 <defs>
  <clipPath id="p2b514e3a49">
   <rect height="815.4" width="1116" x="180" y="129.6"/>
  </clipPath>
 </defs>
</svg>
