<svg xmlns="http://www.w3.org/2000/svg" viewBox="0 0 96 96" fill="none">
  <rect width="96" height="96" rx="20" fill="#0a0f1a"/>
  <path
    transform="translate(12 -10) scale(0.82)"
    d="M50.164 44.695L50.164 44.695Q58.859 39.719 65.777 34.988Q72.695 30.258 77.535 25.855Q82.375 21.453 84.945 17.352Q87.516 13.250 87.516 9.477L87.516 9.477Q87.516 8.547 87.297 7.426Q87.078 6.305 86.148 5.348Q85.219 4.391 83.332 3.734Q81.445 3.078 78.164 3.078L78.164 3.078Q74.391 3.078 71.191 5.020Q67.992 6.961 65.258 10.215Q62.523 13.469 60.254 17.734Q57.984 22 56.125 26.621Q54.266 31.242 52.789 35.918Q51.313 40.594 50.164 44.695ZM57.602 77.344L70.836 69.523Q71.547 69.250 71.820 69.250L71.820 69.250Q72.477 69.250 72.887 69.688Q73.297 70.125 73.297 70.836L73.297 70.836Q73.297 71.602 72.750 72.449Q72.203 73.297 70.836 74.063L70.836 74.063L56.781 82.977Q53.828 84.836 50.684 86.859Q47.539 88.883 44.449 90.906Q41.359 92.930 38.543 94.816Q35.727 96.703 33.430 98.289L33.430 98.289Q30.805 109.828 26.895 118.031Q22.984 126.234 18.691 131.484Q14.398 136.734 10.215 139.168Q6.031 141.602 2.914 141.602L2.914 141.602Q0.125 141.602-1.543 139.852Q-3.211 138.102-3.211 134.820L-3.211 134.820Q-3.211 132.195-1.188 127.957Q0.836 123.719 4.445 118.688Q8.055 113.656 12.949 108.215Q17.844 102.773 23.586 97.688L23.586 97.688Q24.242 94.242 25.445 89.758Q26.648 85.273 28.180 80.133Q29.711 74.992 31.461 69.414Q33.211 63.836 34.961 58.203L34.961 58.203L8 74.063Q7.289 74.336 7.016 74.336L7.016 74.336Q6.305 74.336 5.813 73.898Q5.320 73.461 5.320 72.750L5.320 72.750Q5.320 72.094 5.922 71.273Q6.523 70.453 8 69.523L8 69.523Q11.992 67.172 16.039 64.793Q20.086 62.414 23.832 60.199Q27.578 57.984 30.805 56.098Q34.031 54.211 36.328 52.844L36.328 52.844Q36.328 52.844 36.547 51.750L36.547 51.750Q36.711 50.711 37.066 48.934Q37.422 47.156 37.969 44.859Q38.516 42.563 39.145 40.156Q39.773 37.750 40.512 35.371Q41.250 32.992 42.070 31.078L42.070 31.078Q43.492 27.688 45.598 24.051Q47.703 20.414 50.328 16.996Q52.953 13.578 56.070 10.543Q59.188 7.508 62.688 5.238Q66.188 2.969 69.988 1.629Q73.789 0.289 77.781 0.289L77.781 0.289Q81.773 0.289 84.617 1.082Q87.461 1.875 89.266 3.188Q91.070 4.500 91.918 6.113Q92.766 7.727 92.766 9.367L92.766 9.367Q92.766 13.742 90.879 17.652Q88.992 21.563 85.793 25.117Q82.594 28.672 78.301 31.898Q74.008 35.125 69.223 38.133Q64.438 41.141 59.406 43.957Q54.375 46.773 49.617 49.508L49.617 49.508Q47.539 55.906 45.707 61.512Q43.875 67.117 42.207 72.121Q40.539 77.125 38.980 81.664Q37.422 86.203 35.891 90.469L35.891 90.469Q38.023 89.156 40.648 87.570Q43.273 85.984 46.117 84.262Q48.961 82.539 51.914 80.762Q54.867 78.984 57.602 77.344L57.602 77.344ZM2.422 132.469L2.422 132.469Q2.586 134.875 4.063 134.875L4.063 134.875Q5.430 134.875 7.617 132.906Q9.805 130.938 12.293 127.273Q14.781 123.609 17.242 118.496Q19.703 113.383 21.617 107.039L21.617 107.039Q19.484 109.063 17.215 111.441Q14.945 113.820 12.813 116.281Q10.680 118.742 8.793 121.148Q6.906 123.555 5.484 125.715Q4.063 127.875 3.242 129.625Q2.422 131.375 2.422 132.469Z"
    fill="#ffffff"
  />
</svg>