<?xml version="1.0" encoding="UTF-8" standalone="no"?>
<!-- Generator: Adobe Illustrator 24.3.0, SVG Export Plug-In . SVG Version: 6.00 Build 0)  -->

<svg
   version="1.1"
   id="Ebene_1"
   x="0px"
   y="0px"
   viewBox="0 0 43.040185 33.819999"
   xml:space="preserve"
   width="43.040184"
   height="33.82"
   sodipodi:docname="lemken.svg"
   inkscape:version="1.4.2 (f4327f4, 2025-05-13)"
   xmlns:inkscape="http://www.inkscape.org/namespaces/inkscape"
   xmlns:sodipodi="http://sodipodi.sourceforge.net/DTD/sodipodi-0.dtd"
   xmlns="http://www.w3.org/2000/svg"
   xmlns:svg="http://www.w3.org/2000/svg"><sodipodi:namedview
   id="namedview1"
   pagecolor="#ffffff"
   bordercolor="#000000"
   borderopacity="0.25"
   inkscape:showpageshadow="2"
   inkscape:pageopacity="0.0"
   inkscape:pagecheckerboard="0"
   inkscape:deskcolor="#d1d1d1"
   inkscape:zoom="6.2654345"
   inkscape:cx="77.887655"
   inkscape:cy="21.307381"
   inkscape:window-width="1920"
   inkscape:window-height="1009"
   inkscape:window-x="-8"
   inkscape:window-y="-8"
   inkscape:window-maximized="1"
   inkscape:current-layer="Ebene_1"><inkscape:page
     x="0"
     y="0"
     width="43.040184"
     height="33.82"
     id="page2"
     margin="0"
     bleed="0" /></sodipodi:namedview><defs
   id="defs11" />
<style
   type="text/css"
   id="style1">
	.st0{fill:#009EE0;}
</style>



<path
   class="st0"
   d="m 39.7,14.94 c 0.09,0.69 0.11,1.26 0.11,1.97 0,9.4 -7.57,16.91 -16.97,16.91 -5.67,0 -10.69,-2.73 -13.78,-6.99 h 3.4 c 2.62,2.72 6.3,4.42 10.37,4.42 7.95,0 14.39,-6.44 14.39,-14.39 v -0.35 z"
   id="path4" />
<path
   class="st0"
   d="M 8.86,20.37 C 8.6,19.29 8.45,18.16 8.45,17.01 8.45,8.82 14.9,2.5 22.85,2.5 c 2.36,0 4.83,0.53 6.69,1.69 L 33.93,4.04 C 31.03,1.51 27.06,0 22.85,0 13.45,0 5.83,7.62 5.83,17.02 c 0,1.59 0.22,3.19 0.65,4.53 z"
   id="path5" />
<path
   class="st0"
   d="m 36.23,13.13 c -3.25,2.62 -11.8,6.19 -11.8,6.19 l -7.74,-0.89 c 0,0 2.05,-3.61 3.6,-5.74 1.56,-2.14 2.31,-2.72 4.81,-3.79 2.49,-1.07 5.29,-1.33 8.95,-1.2 3.69,0.13 6.19,-0.04 6.31,1.29 0.11,1.13 -0.88,1.52 -4.13,4.14 M 22.87,23.34 H 10.75 c 0.86,-0.45 3.49,-2.43 3.49,-2.43 l 8.92,0.9 z M 38.77,5.39 C 36.24,5.01 32.05,4.65 28.76,5.23 c -3.29,0.58 -6.97,1.31 -9.43,4.16 -2.46,2.85 -3.55,6.46 -5.92,8.6 -2.37,2.14 -2.66,2.49 -6.08,4.41 C 3.9,24.33 0,25.9 0,25.9 h 25.04 l 0.19,-0.77 8.16,0.77 0.38,-3.2 -7.68,-0.7 0.03,-0.58 c 0,0 7.8,-3.71 9.15,-4.57 1.34,-0.86 7.81,-4.93 7.77,-7.2 C 43.02,7.38 41.29,5.78 38.77,5.39"
   id="path6" />







</svg>
