<?xml version="1.0" encoding="UTF-8" standalone="no"?>
<!-- Generator: Adobe Illustrator 14.0.0, SVG Export Plug-In . SVG Version: 6.00 Build 43363)  -->

<svg
   version="1.1"
   id="Ebene_1"
   x="0px"
   y="0px"
   width="138.35832"
   height="138.36473"
   viewBox="0 0 138.35832 138.36473"
   enable-background="new 0 0 1024 141"
   xml:space="preserve"
   xmlns="http://www.w3.org/2000/svg"
   xmlns:svg="http://www.w3.org/2000/svg"><defs
   id="defs12" />
<g
   id="g12"
   transform="translate(-403.44961,-1)">
	
	
	
	
	
	
	
	<path
   d="m 472.526,88.504 c 0.042,0 0.076,0.007 0.11,0.007 5.403,0 10.246,-2.356 13.598,-6.073 2.93,-3.247 4.726,-7.538 4.726,-12.257 0,-4.429 -1.562,-8.491 -4.173,-11.648 -3.337,-4.056 -8.381,-6.64 -14.032,-6.674 -0.035,0 -0.063,-0.007 -0.097,-0.007 -0.008,0 -0.015,0 -0.021,0 -4.221,0 -8.104,1.444 -11.192,3.834 -4.339,3.351 -7.138,8.588 -7.138,14.495 0,10.08 8.146,18.26 18.219,18.323"
   id="path8" />
	<path
   fill="#e2001a"
   d="m 511.805,23.026 -2.604,3.137 c 9.873,8.181 17.059,19.712 19.649,33.288 0.048,0.27 0.083,0.539 0.131,0.802 0.028,0.173 0.056,0.352 0.083,0.525 2.343,14.012 -0.629,27.727 -7.489,39.051 -8.111,13.376 -21.633,23.394 -38.207,26.559 -0.111,0.021 -0.222,0.034 -0.339,0.055 -16.872,3.123 -33.398,-1.52 -45.897,-11.399 -0.726,-0.581 -1.437,-1.168 -2.142,-1.783 -2.245,-1.955 -4.346,-4.097 -6.28,-6.397 -1.797,-2.155 -3.455,-4.442 -4.934,-6.868 -3.488,-5.706 -6.024,-12.125 -7.357,-19.083 -3.13,-16.402 1.084,-32.507 10.329,-44.923 0.967,-1.278 1.982,-2.521 3.047,-3.724 8.097,-9.168 19.173,-15.822 32.113,-18.295 0.027,-0.007 0.048,-0.007 0.076,-0.014 l -0.2,-1.037 -2.031,-10.702 c -0.028,0.007 -0.056,0.007 -0.09,0.014 -16.479,3.144 -30.463,11.904 -40.37,23.913 -1.251,1.52 -2.439,3.095 -3.559,4.726 -10.17,14.709 -14.661,33.33 -11.048,52.282 5.583,29.226 28.783,50.616 56.51,55.266 7.738,1.299 15.843,1.292 24.01,-0.221 0.131,-0.021 0.27,-0.042 0.407,-0.063 20.029,-3.827 36.377,-15.946 46.181,-32.113 5.769,-9.528 9.265,-20.458 9.907,-31.935 0.305,-5.527 -0.034,-11.186 -1.126,-16.878 C 537.452,40.8 528.761,26.864 516.836,16.977 Z"
   id="path9" />
	<path
   fill="#0076bd"
   d="m 472.174,17.084 c -12.222,0.104 -23.436,4.346 -32.355,11.366 -2.943,2.314 -5.631,4.94 -8.035,7.814 -7.745,9.328 -12.367,21.315 -12.25,34.387 0.035,4.201 0.574,8.277 1.527,12.188 2.314,9.445 7.144,17.895 13.749,24.597 9.666,9.818 23.125,15.884 37.986,15.843 l -0.027,-7.103 -0.014,-5.887 c -22.048,0.063 -40.024,-17.681 -40.226,-39.755 -0.11,-12.913 5.9,-24.458 15.317,-31.872 6.737,-5.306 15.207,-8.512 24.445,-8.588 h 0.055 c 0.069,0 0.139,0 0.214,0 12.354,-0.027 23.437,5.548 30.815,14.343 5.782,6.882 9.292,15.732 9.375,25.419 0.083,10.322 -3.737,19.767 -10.08,26.931 l 1.431,1.265 8.297,7.352 c 7.172,-8.111 11.891,-18.406 13.045,-29.744 0.207,-1.948 0.311,-3.917 0.29,-5.914 -0.014,-1.568 -0.104,-3.109 -0.256,-4.636 -1.043,-11 -5.431,-21.018 -12.146,-29.025 -6.398,-7.614 -14.89,-13.396 -24.583,-16.478 -5.12,-1.631 -10.564,-2.508 -16.216,-2.501 -0.097,0 -0.187,0 -0.283,0 -0.02,-0.002 -0.047,-0.002 -0.075,-0.002"
   id="path10" />
	<path
   fill="#e2001a"
   d="m 436.688,70.181 c 0,19.774 15.975,35.824 35.734,35.935 0.069,0 0.138,0.007 0.207,0.007 10.605,0 20.126,-4.588 26.704,-11.884 5.741,-6.37 9.244,-14.799 9.244,-24.058 0,-8.678 -3.081,-16.644 -8.201,-22.855 -6.543,-7.938 -16.43,-13.017 -27.498,-13.093 l -0.097,13.515 c 6.909,0.048 13.079,3.212 17.169,8.167 3.199,3.876 5.12,8.851 5.12,14.267 0,5.776 -2.204,11.021 -5.797,14.993 -4.098,4.56 -10.032,7.434 -16.645,7.434 -0.034,0 -0.076,0 -0.124,0 -12.333,-0.076 -22.31,-10.087 -22.31,-22.427 0,-7.227 3.434,-13.639 8.74,-17.743 l -8.271,-10.702 c -8.495,6.576 -13.975,16.864 -13.975,28.444"
   id="path11" />
	<path
   fill="#e2001a"
   d="m 519.943,31.213 -3.137,2.584 c 8.153,9.887 13.052,22.565 13.052,36.383 0,0.276 -0.014,0.546 -0.021,0.815 0,0.18 -0.007,0.353 -0.007,0.532 -0.332,14.198 -5.817,27.125 -14.689,36.949 -10.467,11.614 -25.633,18.925 -42.505,18.925 -0.11,0 -0.228,-0.007 -0.338,-0.014 -17.162,-0.098 -32.528,-7.753 -42.947,-19.802 -0.615,-0.698 -1.202,-1.417 -1.769,-2.142 -1.845,-2.35 -3.51,-4.851 -4.975,-7.477 -1.361,-2.445 -2.55,-5.009 -3.552,-7.669 -2.362,-6.26 -3.654,-13.037 -3.654,-20.119 0,-16.706 7.157,-31.72 18.571,-42.187 1.182,-1.084 2.411,-2.114 3.683,-3.088 9.673,-7.489 21.798,-11.953 34.98,-11.953 0.028,0 0.049,0.007 0.076,0.007 V 11.893 L 472.727,1 c -0.027,0 -0.062,0 -0.09,0 -16.782,0 -32.162,5.983 -44.142,15.912 -1.514,1.264 -2.979,2.591 -4.388,3.979 -12.74,12.547 -20.645,29.993 -20.645,49.29 0,29.751 18.779,55.107 45.131,64.877 7.364,2.735 15.324,4.242 23.636,4.29 0.131,0 0.263,0.007 0.407,0.007 20.396,0 38.719,-8.837 51.384,-22.883 7.462,-8.271 12.94,-18.351 15.725,-29.502 1.341,-5.375 2.059,-10.999 2.059,-16.789 0,-16.706 -5.914,-32.023 -15.78,-43.977 z"
   id="path12" />
</g>
</svg>
