<?xml version="1.0" encoding="UTF-8" standalone="no"?>
<svg
   width="129.88803"
   height="65.8806"
   viewBox="0 0 163.57706 82.998136"
   version="1.1"
   id="svg76"
   xmlns="http://www.w3.org/2000/svg"
   xmlns:svg="http://www.w3.org/2000/svg"
   xmlns:rdf="http://www.w3.org/1999/02/22-rdf-syntax-ns#"
   xmlns:cc="http://creativecommons.org/ns#"
   xmlns:dc="http://purl.org/dc/elements/1.1/">
  <defs
     id="defs4">
    <style
       id="style2">.cls-1{fill:#f7ac00;}.cls-2{fill:#1d1d1b;}</style>
  </defs>
  <title
     id="title6">ukd-logo</title>
  <path
     class="cls-1"
     d="M 45.70069,57.423744 A 31.200783,31.200783 0 0 1 42.943725,71.006843 20.17292,20.17292 0 0 1 34.975421,79.882928 23.198858,23.198858 0 0 1 22.871669,82.99292 22.778589,22.778589 0 0 1 11.003268,79.866117 21.131134,21.131134 0 0 1 2.8668578,71.090897 28.174845,28.174845 0 0 1 -0.02459401,58.112985 V 0.01497626 H 11.423537 V 57.659095 a 16.67628,16.67628 0 0 0 2.790588,9.767055 9.8174877,9.8174877 0 0 0 8.657544,4.017773 q 6.085498,0 8.792031,-4.051394 A 16.89482,16.89482 0 0 0 34.370234,57.77677 V 0.01497626 H 45.70069 Z"
     id="path8"
     style="stroke-width:1.68108" />
  <path
     class="cls-1"
     d="M 107.37939,81.68168 H 95.02348 L 79.89379,40.730653 73.169483,51.724894 V 81.68168 H 61.654108 V 0.01497626 H 73.10224 V 20.692219 q 0,7.917871 -0.235351,13.045155 5.69885,-10.08646 6.556199,-11.498564 L 92.871701,0.03178696 H 105.84961 L 88.01339,28.727765 Z"
     id="path10"
     style="stroke-width:1.68108" />
  <path
     class="cls-1"
     d="m 163.59459,40.512113 a 72.841052,72.841052 0 0 1 -2.90826,21.551403 30.814135,30.814135 0 0 1 -8.77522,14.49088 20.811729,20.811729 0 0 1 -14.18829,5.04323 H 117.85249 V 0.01497626 h 19.88714 a 21.551403,21.551403 0 0 1 14.57493,4.95917614 29.183491,29.183491 0 0 1 8.50625,14.0369896 74.320399,74.320399 0 0 1 2.77378,21.500971 z m -11.76754,0 a 74.538939,74.538939 0 0 0 -1.31124,-14.457259 24.745448,24.745448 0 0 0 -4.55572,-10.708459 10.422675,10.422675 0 0 0 -8.60711,-4.101827 h -8.05236 v 59.224331 h 8.40539 a 9.8174877,9.8174877 0 0 0 8.30452,-4.286746 27.149388,27.149388 0 0 0 4.47166,-11.011052 76.640285,76.640285 0 0 0 1.31124,-14.658988 z"
     id="path12"
     style="stroke-width:1.68108" />
  <metadata
     id="metadata154">
    <rdf:RDF>
      <cc:Work
         rdf:about="">
        <dc:title>ukd-logo</dc:title>
      </cc:Work>
    </rdf:RDF>
  </metadata>
</svg>
